<svg xmlns="http://www.w3.org/2000/svg" width="135" height="159" viewBox="0 0 135 159" fill="none">
  <path d="M118.606 69.1709V34.9484L85.6656 1.34766H16.8365C8.28819 1.34766 1.32422 8.28173 1.32422 16.8755V142.131C1.32422 150.688 8.25134 157.659 16.8365 157.659H103.094C111.642 157.659 118.606 150.725 118.606 142.131V127.464" stroke="#FFFEFB" stroke-width="1.5" stroke-miterlimit="10"/>
  <path d="M85.6719 1.34766V25.58C85.6719 30.7437 89.8355 34.9115 94.994 34.9115H118.576" stroke="#FFFEFB" stroke-width="1.5" stroke-miterlimit="10"/>
  <path d="M51.8921 64.7612H22.894C19.9832 64.7612 17.625 62.4007 17.625 59.4869V23.4149C17.625 20.5012 19.9832 18.1406 22.894 18.1406H51.8921C54.803 18.1406 57.1612 20.5012 57.1612 23.4149V59.5238C57.1612 62.4007 54.803 64.7612 51.8921 64.7612Z" stroke="#FFFEFB" stroke-width="1.5" stroke-miterlimit="10"/>
  <path d="M11.9766 81.3906H50.26" stroke="#FFFEFB" stroke-width="1.5" stroke-miterlimit="10" stroke-linecap="round" stroke-linejoin="round"/>
  <path d="M11.9766 95.8516H50.26" stroke="#FFFEFB" stroke-width="1.5" stroke-miterlimit="10" stroke-linecap="round" stroke-linejoin="round"/>
  <path d="M11.9766 110.262H57.1502" stroke="#FFFEFB" stroke-width="1.5" stroke-miterlimit="10" stroke-linecap="round" stroke-linejoin="round"/>
  <path d="M11.9766 124.723H64.0405" stroke="#FFFEFB" stroke-width="1.5" stroke-miterlimit="10" stroke-linecap="round" stroke-linejoin="round"/>
  <path d="M11.9766 139.148H75.0207" stroke="#FFFEFB" stroke-width="1.5" stroke-miterlimit="10" stroke-linecap="round" stroke-linejoin="round"/>
  <path d="M97.9402 134.124C117.679 134.124 133.681 118.106 133.681 98.3472C133.681 78.5882 117.679 62.5703 97.9402 62.5703C78.201 62.5703 62.1992 78.5882 62.1992 98.3472C62.1992 118.106 78.201 134.124 97.9402 134.124Z" stroke="#FFFEFB" stroke-width="1.5" stroke-miterlimit="10"/>
  <path d="M97.9416 121.876C110.925 121.876 121.45 111.34 121.45 98.3441C121.45 85.3479 110.925 74.8125 97.9416 74.8125C84.9585 74.8125 74.4336 85.3479 74.4336 98.3441C74.4336 111.34 84.9585 121.876 97.9416 121.876Z" stroke="#FFFEFB" stroke-width="1.5" stroke-miterlimit="10"/>
  <path d="M87.8906 98.3464L95.2599 104.838L107.972 91.4492" stroke="#FFFEFB" stroke-width="1.5" stroke-miterlimit="10" stroke-linecap="round" stroke-linejoin="round"/>
</svg>