<svg xmlns="http://www.w3.org/2000/svg" width="29" height="28" viewBox="0 0 29 28" fill="none">
  <path d="M28.1216 14.1752C28.1216 21.0758 23.008 26.7807 16.3649 27.7065C15.7437 27.7927 15.1082 27.8377 14.4632 27.8377C13.7186 27.8377 12.9873 27.7783 12.2753 27.6634C5.77193 26.6161 0.804688 20.9753 0.804688 14.1752C0.804688 6.62925 6.92042 0.511719 14.4641 0.511719C22.0078 0.511719 28.1235 6.62925 28.1235 14.1752H28.1216Z" fill="#CAB8AA"/>
  <path d="M16.3633 11.4843V14.4607H20.0442L19.4613 18.4702H16.3633V27.7077C15.7421 27.7939 15.1066 27.8389 14.4615 27.8389C13.7169 27.8389 12.9857 27.7795 12.2737 27.6647V18.4702H8.87891V14.4607H12.2737V10.8189C12.2737 8.55957 14.1046 6.72717 16.3642 6.72717V6.72909C16.3709 6.72909 16.3767 6.72717 16.3834 6.72717H20.0451V10.1947H17.6524C16.9413 10.1947 16.3642 10.772 16.3642 11.4833L16.3633 11.4843Z" fill="#1B1613"/>
</svg>