<svg xmlns="http://www.w3.org/2000/svg" width="90" height="82" viewBox="0 0 90 82" fill="none">
  <path d="M88.1601 22.4627C85.4787 9.02732 72.2904 0.351183 58.8348 1.15723C53.9141 1.41208 49.1946 3.19147 45.3305 6.24869C44.9012 6.59703 44.7027 6.57678 44.2571 6.24869C35.7066 -0.0173818 24.0696 -0.37385 15.0938 4.80265C8.7629 8.44807 3.75247 14.4589 2.20519 21.5837C1.24264 26.0006 1.28834 30.5777 2.33886 34.9746C3.18285 38.3381 4.67873 41.5032 6.74172 44.2906C10.1927 49.058 14.3161 53.0599 18.4881 57.1955C18.9648 57.6601 19.5294 58.025 20.1488 58.2688C20.769 58.511 21.4314 58.6267 22.097 58.6091C22.6884 58.6091 22.8464 58.7832 22.818 59.3462C22.6763 62.1815 26.2245 65.6933 28.5575 65.9566C29.8051 66.0902 30.2425 66.398 30.4491 67.7428C30.923 70.8252 34.0945 73.4135 37.2215 73.6039C37.4929 73.6039 37.7278 73.5391 37.7278 73.9725C37.6792 76.1152 39.1211 77.0549 40.5915 78.4685C41.6517 79.4672 43.0079 80.0941 44.4556 80.2548C46.2581 80.4492 47.8013 79.789 49.1704 78.7642C51.4103 77.0873 53.2208 74.8757 55.1002 72.8262C56.5179 71.2951 56.6799 70.8009 56.6799 70.8009C56.6799 70.8009 56.7366 70.5701 56.7407 70.5458C56.9059 70.053 56.9059 69.5197 56.7407 69.0269C56.7407 68.9904 56.7407 68.958 56.7407 68.9216C56.7407 68.5813 57.2429 68.2896 57.6601 68.2572C59.4571 68.1197 61.1474 67.3506 62.4316 66.0862C63.7165 64.8241 64.5142 63.1485 64.6836 61.3553C64.7201 60.9705 64.7768 60.8125 65.2224 60.7679C69.0095 60.3629 71.7558 57.6166 72.1689 53.7687C72.2094 53.3636 72.3552 53.311 72.6955 53.2989C73.5068 53.2724 74.3051 53.0866 75.0447 52.752C75.782 52.4168 76.4466 51.9408 77.0011 51.3506L77.7707 50.581C79.3058 49.0459 80.926 47.5878 82.3518 45.9554C86.864 40.783 89.1647 34.4764 88.8123 27.6027C88.718 25.876 88.5001 24.1583 88.1601 22.4627Z" fill="#F7F4EE" stroke="#F7F4EE" stroke-width="2" stroke-linecap="round" stroke-linejoin="round"/>
  <path d="M4.80179 26.2019C4.97839 24.4111 5.35194 22.6452 5.91567 20.9363C7.41948 16.4579 10.1984 12.5161 13.9113 9.59502C17.3713 6.85288 21.5247 5.12529 25.9088 4.60482C32.9296 3.79473 39.1484 5.66338 44.5652 10.2107C44.9419 10.5307 45.1404 10.5226 45.5211 10.2107C52.6094 4.42663 60.6051 2.80642 69.2083 5.82807C77.8803 8.86997 83.2026 15.1805 84.9403 24.2009C86.5078 32.3667 84.2031 39.5441 78.5162 45.6158C76.973 47.2603 75.3285 48.8197 73.7448 50.4277C73.2513 50.9552 72.6579 51.3793 71.999 51.6753C71.3401 51.9748 70.6284 52.1414 69.9049 52.1654C69.6011 52.1654 69.4715 52.2059 69.4351 52.5704C69.3101 54.1763 68.6181 55.6855 67.4828 56.8282C66.3476 57.9709 64.843 58.6727 63.2379 58.8082C62.8328 58.8487 62.7923 58.9904 62.7599 59.3306C62.609 60.9296 61.899 62.4241 60.7549 63.5513C59.6074 64.679 58.0981 65.3648 56.4938 65.4874C56.1212 65.5198 55.6837 65.779 55.6837 66.0869C56.0888 67.7881 55.4407 68.7683 54.3511 69.8538C52.5851 71.6117 50.8353 73.3898 49.0855 75.1477C46.6553 77.578 43.504 77.5253 41.0454 75.1477C39.7371 73.884 38.7285 72.4987 38.773 70.5869C38.773 70.1818 38.5624 70.271 38.3194 70.2589C35.5367 70.0766 32.7014 67.7799 32.2802 65.0297C32.0938 63.8145 31.705 63.5553 30.5911 63.4338C28.5132 63.2029 25.3498 60.0678 25.4713 57.5444C25.4956 57.0381 25.3579 56.8802 24.8273 56.8842C24.235 56.8992 23.6456 56.796 23.0937 56.5804C22.5401 56.3632 22.036 56.0366 21.6112 55.6204C17.8767 51.9345 14.0449 48.3296 10.5372 44.4209C8.81804 42.4948 7.44741 40.2839 6.48677 37.8875C4.99788 34.1833 4.42004 30.1759 4.80179 26.2019Z" stroke="#4B3930" stroke-miterlimit="10" stroke-linecap="round"/>
  <path d="M45.5442 10.2031L29.6785 25.9716L28.2163 27.4459C28.2163 27.4459 24.6802 30.6863 28.6497 34.0441C28.6497 34.0441 32.1695 37.3209 37.2042 34.9514C37.2042 34.9514 38.2574 34.514 40.2907 32.4847L49.4042 23.359C49.4042 23.359 49.7202 23.0471 49.8458 22.954C49.9713 22.8608 50.7328 21.994 51.871 23.0997L70.3735 41.6144L73.1481 44.385C73.1481 44.385 76.0118 47.0826 74.4442 49.7559" stroke="#4B3930" stroke-miterlimit="10" stroke-linecap="round"/>
  <path d="M50.7188 33.457L69.4967 52.2795" stroke="#4B3930" stroke-miterlimit="10" stroke-linecap="round"/>
  <path d="M44.1094 40.0898L62.8185 59.0177" stroke="#4B3930" stroke-miterlimit="10" stroke-linecap="round"/>
  <path d="M20.1914 54.2567C20.1914 54.2567 17.6882 51.2876 21.4065 47.3303L27.5794 41.5017C28.3086 40.9691 29.2014 40.7085 30.1026 40.7655C31.0038 40.8225 31.8566 41.1934 32.5129 41.8136C32.5129 41.8136 35.9599 44.3816 34.7731 47.6746C34.7731 47.6746 38.1471 46.7997 40.1359 49.3596C40.1359 49.3596 42.315 51.6319 41.7561 54.0014C41.7561 54.0014 44.6603 53.8475 46.5032 55.897C46.5032 55.897 48.7512 58.1086 48.0019 60.944C48.0019 60.944 51.8134 60.1622 54.2477 63.4025C54.2477 63.4025 56.2284 65.3346 55.6816 67.9512" stroke="#4B3930" stroke-miterlimit="10" stroke-linecap="round"/>
  <path d="M74.4286 49.7361C75.9961 47.0628 73.1325 44.3652 73.1325 44.3652L70.3579 41.5947L51.8553 23.08C50.7334 21.9742 49.9759 22.8208 49.8301 22.9342C49.6843 23.0476 49.3886 23.3393 49.3886 23.3393L40.2751 32.465C38.2498 34.4902 37.1886 34.9317 37.1886 34.9317C32.1539 37.3012 28.634 34.0243 28.634 34.0243C24.6646 30.6827 28.2006 27.4262 28.2006 27.4262L29.6628 25.9518L45.5285 10.1834H45.5042C52.5925 4.39929 60.5881 2.77908 69.1913 5.80072C77.8634 8.84263 83.1857 15.1533 84.9234 24.1737C86.4909 32.3394 84.1862 39.5168 78.4993 45.5885L74.4286 49.7361Z" fill="#4B3930"/>
  <path d="M54.34 69.8671C52.574 71.625 50.8242 73.4032 49.0744 75.1611C46.6441 77.5913 43.4929 77.5387 41.0342 75.1611C39.7259 73.8973 38.7174 72.512 38.7619 70.6002C38.7619 70.1952 38.5513 70.2843 38.3083 70.2721C35.5256 70.0898 32.6903 67.7933 32.269 65.043C32.0827 63.8279 31.6939 63.5687 30.58 63.4471C28.5021 63.2163 25.3387 60.0812 25.4602 57.5577C25.4845 57.0514 25.3468 56.8935 24.8162 56.8976C24.2238 56.9126 23.6345 56.8093 23.0826 56.5938C22.529 56.3765 22.0248 56.05 21.6001 55.6338L20.2148 54.2567C20.2148 54.2567 17.7116 51.2876 21.43 47.3303L27.6029 41.5017C28.3321 40.9691 29.2248 40.7085 30.126 40.7655C31.0272 40.8225 31.88 41.1934 32.5364 41.8136C32.5364 41.8136 35.9833 44.3816 34.7965 47.6746C34.7965 47.6746 38.1706 46.7997 40.1593 49.3596C40.1593 49.3596 42.3385 51.6319 41.7795 54.0014C41.7795 54.0014 44.6837 53.8475 46.5267 55.897C46.5267 55.897 48.7747 58.1086 48.0253 60.944C48.0253 60.944 51.8368 60.1622 54.2712 63.4025C54.2712 63.4025 56.2518 65.3346 55.705 67.9512C55.4033 68.6863 54.9362 69.3419 54.34 69.8671Z" fill="#4B3930"/>
  <path d="M37.3 45.4727L23.9141 58.3322" stroke="#F7F4EE" stroke-linecap="round" stroke-linejoin="round"/>
  <path d="M43.8112 52.0977L30.0156 65.5717" stroke="#F7F4EE" stroke-linecap="round" stroke-linejoin="round"/>
  <path d="M49.4293 59.5625L37.9219 71.0699" stroke="#F7F4EE" stroke-linecap="round" stroke-linejoin="round"/>
</svg>