<svg xmlns="http://www.w3.org/2000/svg" width="223" height="40" viewBox="0 0 223 40" fill="none">
  <path d="M70.9911 15.7236C70.6264 16.5687 70.0002 17.2746 69.2046 17.7375L70.6139 20.6559L68.1152 21.7378L66.6311 18.3647H66.5061C65.5302 18.4024 64.563 18.168 63.7127 17.6875C62.9634 17.2202 62.3749 16.5349 62.0261 15.7236C61.9044 15.4423 61.8034 15.1526 61.7238 14.8566C61.6274 14.4683 61.5606 14.0732 61.5239 13.6748C61.4739 13.195 61.439 12.6003 61.424 11.8882C61.409 11.1761 61.3965 10.2742 61.3965 9.18226C61.3965 8.09037 61.3965 7.18336 61.424 6.47875C61.4515 5.77415 61.4739 5.16948 61.5239 4.69224C61.5606 4.29299 61.6274 3.89709 61.7238 3.5079C61.8037 3.21205 61.9048 2.92231 62.0261 2.64089C62.3742 1.82983 62.9629 1.14519 63.7127 0.679492C64.5757 0.23301 65.5332 0 66.5049 0C67.4766 0 68.4341 0.23301 69.2971 0.679492C70.0468 1.14519 70.6356 1.82983 70.9837 2.64089C71.105 2.92231 71.206 3.21205 71.286 3.5079C71.3823 3.89709 71.4492 4.29299 71.4859 4.69224C71.5358 5.16864 71.57 5.76415 71.5883 6.47875C71.6033 7.19086 71.6133 8.09287 71.6133 9.18226C71.6133 10.2717 71.6133 11.1811 71.5883 11.8882C71.5633 12.5954 71.5358 13.195 71.4859 13.6748C71.4492 14.0732 71.3824 14.4683 71.286 14.8566C71.2089 15.1524 71.1103 15.4421 70.9911 15.7236ZM64.7271 14.5418C64.8597 14.8729 65.0875 15.1573 65.3818 15.3588C65.7288 15.5489 66.118 15.6485 66.5136 15.6485C66.9093 15.6485 67.2985 15.5489 67.6455 15.3588C67.9385 15.1559 68.166 14.8719 68.3001 14.5418C68.3697 14.393 68.4201 14.236 68.4501 14.0745C68.4936 13.8039 68.5228 13.5312 68.5375 13.2575C68.5625 12.8894 68.5792 12.3821 68.5875 11.7358C68.5875 11.0912 68.6 10.2367 68.6 9.18226C68.6 8.12785 68.6 7.2758 68.5875 6.62866C68.575 5.98152 68.5625 5.47681 68.5375 5.10702C68.5228 4.83332 68.4936 4.56058 68.4501 4.28997C68.4201 4.1285 68.3697 3.97149 68.3001 3.82273C68.166 3.49256 67.9385 3.20864 67.6455 3.00568C67.2985 2.81563 66.9093 2.71602 66.5136 2.71602C66.118 2.71602 65.7288 2.81563 65.3818 3.00568C65.0875 3.20722 64.8597 3.49158 64.7271 3.82273C64.6556 3.97092 64.6043 4.12808 64.5747 4.28997C64.5311 4.56058 64.5019 4.83332 64.4873 5.10702C64.4623 5.47681 64.4456 5.98402 64.4373 6.62866C64.4373 7.2758 64.4248 8.12785 64.4248 9.18226C64.4248 10.2367 64.4248 11.0912 64.4373 11.7358C64.4498 12.3805 64.4623 12.8902 64.4873 13.2575C64.5019 13.5312 64.5311 13.8039 64.5747 14.0745C64.6043 14.2364 64.6556 14.3936 64.7271 14.5418Z" fill="white"/>
  <path d="M78.2307 18.3658C76.6033 18.3658 75.4373 18.001 74.7327 17.2714C74.0281 16.5418 73.6758 15.4224 73.6758 13.9133V0.303345H76.5942V13.8133C76.5598 14.3119 76.6926 14.8078 76.9714 15.2225C77.223 15.539 77.6394 15.6981 78.2208 15.6998C78.8021 15.7014 79.226 15.5423 79.4925 15.2225C79.7798 14.8112 79.9174 14.3138 79.8823 13.8133V0.303345H82.8007V13.9133C82.8007 15.4224 82.4442 16.5418 81.7313 17.2714C81.0184 18.001 79.8515 18.3658 78.2307 18.3658Z" fill="white"/>
  <path d="M100.851 18.3422C98.6188 18.3422 97.1088 17.4619 96.3209 15.7012C96.2013 15.4249 96.1052 15.1391 96.0336 14.8467C95.9433 14.4651 95.8799 14.0777 95.8437 13.6873C95.7937 13.2201 95.7587 12.6229 95.7437 11.9008C95.7287 11.1787 95.7188 10.2767 95.7188 9.18484C95.7188 8.09295 95.7187 7.18595 95.7437 6.46885C95.7687 5.75175 95.7937 5.15208 95.8437 4.68234C95.8796 4.29273 95.9431 3.90615 96.0336 3.52548C96.1052 3.23227 96.2013 2.94558 96.3209 2.66845C96.6713 1.85502 97.2648 1.16991 98.02 0.707047C98.8746 0.225807 99.8458 -0.00941434 100.826 0.0274324C102.2 0.0274324 103.324 0.413052 104.197 1.18429C104.737 1.67975 105.129 2.31555 105.328 3.02076C105.454 3.45228 105.538 3.89493 105.578 4.34253C105.628 4.84226 105.653 5.40859 105.653 6.04157H102.637C102.637 5.54185 102.625 5.12208 102.6 4.79227C102.581 4.51819 102.547 4.24539 102.497 3.97522C102.471 3.79916 102.412 3.62965 102.323 3.47549C102.246 3.35783 102.158 3.24892 102.058 3.15069C101.89 3.01574 101.704 2.9055 101.506 2.82336C101.266 2.73234 101.012 2.68904 100.756 2.69593C100.396 2.67042 100.037 2.75875 99.7297 2.94841C99.4226 3.13808 99.1829 3.41947 99.0444 3.75284C98.9888 3.90491 98.9421 4.06012 98.9045 4.2176C98.8514 4.49221 98.818 4.77026 98.8045 5.04963C98.7795 5.42775 98.7629 5.93914 98.7546 6.58378C98.7546 7.22842 98.7546 8.09792 98.7546 9.18731C98.7546 10.2767 98.7546 11.1213 98.7546 11.7659C98.7546 12.4105 98.7795 12.9253 98.8045 13.3025C98.8186 13.5852 98.852 13.8665 98.9045 14.1446C98.9408 14.3065 98.9876 14.4659 99.0444 14.6218C99.3467 15.3264 99.9239 15.6787 100.781 15.6787C101.258 15.6986 101.725 15.537 102.088 15.2265C102.193 15.1367 102.282 15.0303 102.353 14.9116C102.437 14.7556 102.497 14.5868 102.527 14.4119C102.578 14.1419 102.612 13.869 102.63 13.5949C102.655 13.2617 102.667 12.8344 102.667 12.3131H105.676C105.679 12.8798 105.65 13.4463 105.588 14.0096C105.539 14.46 105.455 14.906 105.338 15.3439C105.241 15.7107 105.093 16.0623 104.899 16.3883C104.714 16.6893 104.485 16.9605 104.219 17.1929C103.416 17.9608 102.293 18.3439 100.851 18.3422Z" fill="white"/>
  <path d="M107.779 0.303345H110.698V7.37192H114.118V0.303345H117.037V18.0659H114.118V10.0129H110.698V18.0659H107.779V0.303345Z" fill="white"/>
  <path d="M122.873 0.303345H126.571L129.239 11.8494L131.955 0.303345H135.603V18.0659H132.81V6.11511L130.119 18.0659H128.37L125.654 6.11511V18.0659H122.873V0.303345Z" fill="white"/>
  <path d="M144.082 12.3541L142.548 2.66702H142.498L140.964 12.3541L140.561 14.8702L140.062 18.0659H137.113L140.259 0.303345H144.787L147.907 18.0659H144.989L144.489 14.8702L144.082 12.3541Z" fill="white"/>
  <path d="M149.469 0.303345H152.362L156.59 11.4222V0.303345H159.403V18.0659H156.565L152.287 6.64231V18.0659H149.469V0.303345Z" fill="white"/>
  <path d="M161.793 0.303345H164.711V7.37192H168.144V0.303345H171.063V18.0659H168.144V10.0129H164.711V18.0659H161.793V0.303345Z" fill="white"/>
  <path d="M177.143 0.302321H181.495C182.501 0.266624 183.499 0.495824 184.389 0.966959C185.143 1.4027 185.738 2.06923 186.085 2.8684C186.202 3.11604 186.299 3.37252 186.375 3.63546C186.466 3.98593 186.525 4.34383 186.552 4.70487C186.592 5.15628 186.621 5.73929 186.64 6.45389C186.655 7.156 186.665 8.07049 186.665 9.20236C186.665 10.3342 186.665 11.2412 186.64 11.9508C186.615 12.6604 186.592 13.2326 186.552 13.6849C186.525 14.0459 186.466 14.4038 186.375 14.7543C186.299 15.0173 186.202 15.2739 186.085 15.5214C185.738 16.3205 185.143 16.987 184.389 17.4228C183.496 17.8986 182.493 18.1288 181.483 18.0899H177.143V0.302321ZM181.193 15.4714C181.671 15.4956 182.148 15.3967 182.577 15.184C182.921 14.9819 183.193 14.6781 183.357 14.3145C183.41 14.1703 183.456 14.0235 183.494 13.8747C183.548 13.6281 183.582 13.3774 183.594 13.1252C183.621 12.7804 183.636 12.3031 183.644 11.691C183.651 11.0788 183.659 10.2618 183.659 9.23735C183.659 8.21292 183.659 7.34339 183.644 6.72123C183.629 6.09908 183.621 5.61436 183.594 5.26205C183.582 5.00402 183.549 4.74744 183.494 4.49499C183.452 4.33508 183.407 4.19016 183.357 4.05524C183.192 3.69282 182.92 3.38999 182.577 3.1882C182.148 2.97456 181.671 2.87477 181.193 2.89838H180.061V15.4764L181.193 15.4714Z" fill="white"/>
  <path d="M193.276 18.3658C191.65 18.3658 190.484 18.001 189.778 17.2714C189.071 16.5418 188.719 15.4224 188.721 13.9133V0.303345H191.642V13.8133C191.607 14.3119 191.74 14.8078 192.019 15.2225C192.269 15.539 192.685 15.6981 193.268 15.6998C193.851 15.7014 194.274 15.5423 194.537 15.2225C194.827 14.812 194.965 14.3142 194.93 13.8133V0.303345H197.848V13.9133C197.848 15.4224 197.492 16.5418 196.779 17.2714C196.066 18.001 194.898 18.3658 193.276 18.3658Z" fill="white"/>
  <path d="M200.145 0.303345H203.038L207.263 11.4222V0.303345H210.081V18.0659H207.238L202.96 6.64231V18.0659H200.145V0.303345Z" fill="white"/>
  <path d="M222.239 8.87848V10.0878C222.239 11.0423 222.239 11.8368 222.214 12.464C222.189 13.0911 222.164 13.6134 222.114 14.0231C222.076 14.3711 222.013 14.7159 221.927 15.055C221.852 15.3267 221.755 15.5916 221.637 15.8471C220.882 17.5128 219.456 18.3457 217.359 18.3457C216.379 18.3826 215.408 18.1473 214.553 17.6661C213.793 17.1986 213.199 16.5036 212.857 15.6797C212.734 15.413 212.637 15.1353 212.567 14.8502C212.478 14.4684 212.414 14.0811 212.377 13.6908C212.327 13.2236 212.294 12.6314 212.277 11.9193C212.259 11.2072 212.252 10.2952 212.252 9.18831C212.252 8.08143 212.252 7.17195 212.277 6.45985C212.302 5.74774 212.327 5.15555 212.377 4.68581C212.414 4.29636 212.478 3.90989 212.567 3.52898C212.636 3.24297 212.733 2.96432 212.857 2.69693C213.197 1.86841 213.791 1.16877 214.553 0.698042C215.416 0.214754 216.396 -0.0204497 217.384 0.0184275C218.775 0.0184275 219.89 0.387372 220.73 1.12529C221.262 1.6052 221.643 2.23063 221.824 2.92431C222.046 3.89363 222.152 4.88587 222.139 5.88015H219.221C219.218 5.25351 219.176 4.62764 219.096 4.0062C219.057 3.65576 218.896 3.33021 218.641 3.08673C218.274 2.78521 217.808 2.63266 217.334 2.65944C216.462 2.65944 215.875 3.02176 215.585 3.74136C215.514 3.8885 215.463 4.04494 215.435 4.2061C215.389 4.48147 215.359 4.75927 215.345 5.03812C215.32 5.41541 215.305 5.92763 215.295 6.57227C215.285 7.21691 215.295 8.08644 215.295 9.17583C215.295 10.2652 215.295 11.1347 215.295 11.7794C215.295 12.424 215.32 12.9362 215.345 13.3135C215.359 13.5929 215.392 13.871 215.445 14.1456C215.483 14.3031 215.53 14.4582 215.585 14.6103C215.888 15.3316 216.5 15.6922 217.422 15.6922C218.254 15.6922 218.825 15.3649 219.133 14.7103C219.183 14.6102 219.221 14.5045 219.246 14.3954C219.277 14.2307 219.294 14.0634 219.296 13.8957C219.296 13.6708 219.313 13.3585 219.321 12.9662C219.328 12.5739 219.321 12.0467 219.321 11.3921H217.409V8.87598L222.239 8.87848Z" fill="white"/>
  <path d="M90.8852 12.3541L89.3485 2.66702H89.2986L87.7644 12.3541L87.3621 14.8702L86.8624 18.0659H83.9141L87.0598 0.303345H91.5898L94.708 18.0659H91.7897L91.29 14.8702L90.8852 12.3541Z" fill="white"/>
  <path d="M101.842 27.1907C101.893 27.3069 101.937 27.4263 101.972 27.548C102.016 27.7023 102.044 27.8604 102.057 28.0202C102.077 28.2084 102.09 28.4433 102.095 28.7248C102.095 29.0072 102.095 29.3595 102.095 29.7867V35.8983H101.323V34.9189C100.923 35.6585 100.253 36.0282 99.3114 36.0282C98.9304 36.0479 98.5502 35.9768 98.202 35.8209C97.951 35.6949 97.7444 35.4953 97.6098 35.2487C97.4722 34.9853 97.3874 34.6976 97.36 34.4017C97.33 34.0818 97.3125 33.7345 97.3125 33.3597C97.3125 33.0574 97.3125 32.81 97.3125 32.6101C97.3125 32.4102 97.33 32.2503 97.3425 32.1104C97.3517 31.9973 97.3667 31.8847 97.3875 31.7731C97.4078 31.6825 97.4362 31.5938 97.4724 31.5083C97.5631 31.313 97.6924 31.1381 97.8526 30.9942C98.0128 30.8503 98.2005 30.7405 98.4044 30.6712C98.9602 30.4973 99.5413 30.4179 100.123 30.4364H101.308V29.7792C101.308 29.3894 101.308 29.0696 101.308 28.8198C101.308 28.5699 101.29 28.3625 101.278 28.2001C101.27 28.0697 101.252 27.9401 101.223 27.8128C101.199 27.7266 101.168 27.6429 101.128 27.563C100.928 27.0849 100.483 26.8467 99.7936 26.8484C99.104 26.85 98.6468 27.0949 98.4219 27.5829C98.382 27.6458 98.3532 27.7152 98.3369 27.7878C98.3146 27.8804 98.302 27.975 98.2995 28.0702C98.2995 28.1826 98.2994 28.32 98.2795 28.5024C98.2595 28.6848 98.2795 28.9097 98.2795 29.1996H97.5299C97.5299 28.8722 97.5299 28.6024 97.5299 28.39C97.5299 28.1776 97.5449 28.0027 97.5574 27.8628C97.5666 27.7416 97.5893 27.6218 97.6248 27.5055C97.6548 27.4056 97.6898 27.3056 97.7273 27.2057C98.0521 26.4911 98.7475 26.1338 99.8136 26.1338C100.254 26.1113 100.693 26.1971 101.093 26.3836C101.426 26.5618 101.689 26.8458 101.842 27.1907ZM99.5088 35.3137C100.273 35.3137 100.801 35.0005 101.09 34.3742C101.141 34.259 101.181 34.1394 101.21 34.0169C101.249 33.8525 101.275 33.6854 101.288 33.5171C101.306 33.3172 101.319 33.0574 101.325 32.7376C101.325 32.4177 101.325 32.008 101.325 31.5058V31.111H100.216C99.825 31.1015 99.4344 31.1368 99.0515 31.2159C98.8064 31.2595 98.582 31.3814 98.4119 31.5632C98.2674 31.7538 98.1807 31.9819 98.162 32.2204C98.1203 32.5636 98.1011 32.9091 98.1046 33.2548C98.1046 33.6946 98.1046 34.0044 98.1245 34.1668C98.1344 34.3255 98.1725 34.4812 98.237 34.6265C98.4369 35.0888 98.8716 35.3137 99.5088 35.3137Z" fill="white"/>
  <path d="M106.673 26.2313C106.747 26.2313 106.817 26.2313 106.88 26.2313L107.067 26.2612V27.0108C107.008 26.9864 106.944 26.9737 106.88 26.9733H106.673C106.429 26.9515 106.185 26.996 105.965 27.102C105.745 27.208 105.558 27.3717 105.423 27.5755C105.162 28.0182 105.032 28.526 105.048 29.0397V35.8859H104.299V26.2587H105.048V27.2157C105.171 26.9039 105.392 26.6407 105.678 26.4661C105.982 26.2986 106.326 26.2174 106.673 26.2313Z" fill="white"/>
  <path d="M110.938 36.0285C109.846 36.0285 109.106 35.5896 108.719 34.7117C108.658 34.5752 108.607 34.434 108.567 34.2895C108.522 34.0913 108.491 33.89 108.475 33.6873C108.45 33.4374 108.435 33.1001 108.427 32.6878C108.42 32.2756 108.427 31.7459 108.427 31.0812C108.427 30.4166 108.427 29.8794 108.427 29.4646C108.427 29.0499 108.45 28.7151 108.475 28.4652C108.492 28.2626 108.523 28.0614 108.567 27.863C108.724 27.2931 109.078 26.7973 109.567 26.4638C109.984 26.2182 110.464 26.0968 110.948 26.114C111.551 26.0847 112.143 26.2867 112.602 26.6787C112.735 26.7988 112.849 26.9387 112.94 27.0935C113.035 27.2616 113.108 27.4413 113.157 27.6282C113.219 27.8741 113.26 28.1249 113.279 28.3777C113.304 28.6726 113.317 29.0349 113.317 29.4596H112.527C112.527 29.0815 112.515 28.7717 112.49 28.5302C112.47 28.3211 112.438 28.1134 112.395 27.908C112.367 27.7636 112.316 27.6244 112.245 27.4957C112.183 27.389 112.107 27.2907 112.02 27.2034C111.719 26.9572 111.337 26.8301 110.948 26.8461C110.623 26.837 110.302 26.9239 110.026 27.096C109.772 27.2616 109.57 27.4965 109.444 27.7731C109.393 27.8851 109.352 28.0013 109.322 28.1204C109.281 28.2936 109.256 28.47 109.247 28.6476C109.227 28.8775 109.214 29.1848 109.209 29.5671C109.204 29.9494 109.209 30.4541 109.209 31.0812C109.209 31.7084 109.209 32.2131 109.209 32.5954C109.209 32.9777 109.227 33.2825 109.247 33.5074C109.257 33.6841 109.282 33.8596 109.322 34.0321C109.349 34.1498 109.39 34.2638 109.444 34.3719C109.57 34.6481 109.772 34.8829 110.026 35.049C110.302 35.221 110.623 35.3079 110.948 35.2989C111.338 35.3241 111.723 35.1959 112.02 34.9416C112.119 34.8587 112.204 34.7599 112.27 34.6492C112.343 34.5175 112.394 34.375 112.422 34.227C112.465 34.0095 112.49 33.7889 112.497 33.5674C112.497 33.3175 112.515 32.9677 112.515 32.5529H113.304C113.304 33.0177 113.304 33.4075 113.277 33.7273C113.264 33.9999 113.226 34.2709 113.165 34.5368C113.119 34.728 113.046 34.9114 112.947 35.0815C112.855 35.2321 112.741 35.3685 112.61 35.4863C112.143 35.8749 111.544 36.069 110.938 36.0285Z" fill="white"/>
  <path d="M117.972 26.1378C119.326 26.1378 120.004 26.9648 120.004 28.6189V35.8973H119.231V28.7338C119.231 28.0808 119.119 27.6036 118.894 27.3021C118.759 27.1437 118.587 27.0201 118.394 26.9418C118.201 26.8636 117.992 26.8329 117.785 26.8524C117.55 26.8418 117.315 26.8844 117.099 26.9769C116.883 27.0695 116.69 27.2097 116.536 27.3871C116.229 27.7435 116.076 28.2674 116.076 28.9587V35.8973H115.326V22.6222H116.076V27.1897C116.253 26.8504 116.528 26.5726 116.865 26.3926C117.208 26.2192 117.588 26.1318 117.972 26.1378Z" fill="white"/>
  <path d="M122.595 24.674C122.515 24.6768 122.435 24.6631 122.361 24.6338C122.287 24.6045 122.219 24.5603 122.163 24.5038C122.106 24.4473 122.062 24.3798 122.033 24.3055C122.003 24.2312 121.99 24.1516 121.993 24.0718C121.99 23.9934 122.003 23.9153 122.032 23.8425C122.062 23.7697 122.106 23.704 122.162 23.6495C122.283 23.5464 122.436 23.4897 122.595 23.4897C122.753 23.4897 122.907 23.5464 123.027 23.6495C123.083 23.704 123.128 23.7697 123.157 23.8425C123.186 23.9153 123.2 23.9934 123.197 24.0718C123.2 24.1516 123.186 24.2312 123.157 24.3055C123.128 24.3798 123.083 24.4473 123.027 24.5038C122.97 24.5603 122.903 24.6045 122.828 24.6338C122.754 24.6631 122.675 24.6768 122.595 24.674ZM122.22 26.273H122.97V35.9002H122.22V26.273Z" fill="white"/>
  <path d="M127.595 35.956C126.943 35.956 126.468 35.8061 126.176 35.5038C125.884 35.2015 125.734 34.6343 125.734 33.7947V26.9885H124.484V26.2739H125.734V24.1676H126.483V26.2739H128.27V26.9885H126.483V33.6998C126.483 34.3145 126.58 34.725 126.773 34.9316C126.899 35.0447 127.046 35.1305 127.207 35.1838C127.367 35.2372 127.537 35.2568 127.705 35.2414C127.92 35.2427 128.134 35.2244 128.345 35.1865V35.8811C128.205 35.9061 128.075 35.9261 127.95 35.9385C127.825 35.951 127.708 35.956 127.595 35.956Z" fill="white"/>
  <path d="M133.462 34.9192C133.56 34.8366 133.645 34.7387 133.712 34.6293C133.785 34.4997 133.839 34.3599 133.872 34.2146C133.924 34.0015 133.955 33.784 133.967 33.5649C133.987 33.3151 133.994 32.9778 133.994 32.588H134.766C134.766 33.0402 134.766 33.4175 134.729 33.7249C134.71 33.9885 134.669 34.2501 134.606 34.5069C134.559 34.6957 134.483 34.876 134.381 35.0416C134.283 35.1914 134.165 35.3275 134.032 35.4464C133.551 35.8539 132.932 36.0622 132.303 36.0286C131.177 36.0286 130.412 35.5838 130.009 34.6943C129.959 34.5569 129.911 34.4145 129.869 34.272C129.815 34.0755 129.783 33.8735 129.774 33.6699C129.754 33.42 129.739 33.0802 129.726 32.6704C129.714 32.2607 129.709 31.7334 129.709 31.0813C129.709 30.4292 129.709 29.8995 129.726 29.4922C129.744 29.0849 129.754 28.7426 129.774 28.4928C129.784 28.2867 129.816 28.0824 129.869 27.8831C129.911 27.7332 129.959 27.5883 130.009 27.4509C130.189 27.0406 130.486 26.6928 130.863 26.4514C131.292 26.2249 131.77 26.1066 132.255 26.1066C132.74 26.1066 133.218 26.2249 133.647 26.4514C134.011 26.6708 134.297 26.9996 134.464 27.3909C134.527 27.5413 134.581 27.6957 134.624 27.8531C134.678 28.0594 134.713 28.2702 134.729 28.4828C134.754 28.7326 134.769 29.0824 134.776 29.4972C134.784 29.912 134.776 30.4442 134.776 31.0963H130.471C130.471 31.7085 130.471 32.2057 130.471 32.5805C130.471 32.9553 130.489 33.2601 130.509 33.4925C130.518 33.6725 130.544 33.8514 130.583 34.0272C130.611 34.1448 130.652 34.2589 130.706 34.367C130.981 34.9933 131.501 35.3065 132.268 35.3065C132.701 35.3402 133.131 35.201 133.462 34.9192ZM132.278 26.8537C131.498 26.8537 130.977 27.161 130.716 27.7757C130.675 27.873 130.64 27.9732 130.613 28.0755C130.575 28.2238 130.549 28.3751 130.536 28.5277C130.519 28.7151 130.504 28.96 130.491 29.2598C130.479 29.5597 130.471 29.9494 130.471 30.4267H134.007C134.007 29.9269 134.007 29.5397 134.007 29.2324C134.007 28.925 133.989 28.6752 133.969 28.4828C133.958 28.3301 133.932 28.1787 133.894 28.0305C133.865 27.9318 133.83 27.835 133.789 27.7407C133.521 27.1493 133.017 26.8537 132.278 26.8537Z" fill="white"/>
  <path d="M139.085 36.0268C137.996 36.0268 137.256 35.5879 136.866 34.71C136.804 34.5739 136.754 34.4326 136.716 34.2878C136.671 34.0896 136.64 33.8883 136.624 33.6856C136.599 33.4357 136.581 33.0984 136.576 32.6861C136.571 32.2739 136.576 31.7442 136.576 31.0795C136.576 30.4149 136.576 29.8777 136.576 29.4629C136.576 29.0482 136.599 28.7133 136.624 28.4635C136.641 28.2609 136.672 28.0597 136.716 27.8613C136.751 27.7188 136.801 27.5806 136.866 27.4491C137.036 27.038 137.328 26.689 137.703 26.4496C138.121 26.2044 138.601 26.083 139.085 26.0998C139.689 26.0707 140.281 26.2726 140.742 26.6645C140.875 26.7847 140.988 26.9246 141.079 27.0793C141.174 27.2474 141.247 27.4271 141.296 27.614C141.357 27.8601 141.398 28.1108 141.419 28.3635C141.444 28.6584 141.456 29.0207 141.456 29.4455H140.662C140.662 29.0673 140.649 28.7575 140.624 28.516C140.603 28.3071 140.571 28.0994 140.529 27.8938C140.501 27.7494 140.451 27.6103 140.379 27.4816C140.316 27.3747 140.24 27.2764 140.152 27.1892C139.851 26.9422 139.469 26.8149 139.08 26.8319C138.756 26.8232 138.436 26.9101 138.161 27.0817C137.906 27.2474 137.704 27.4823 137.578 27.7589C137.526 27.8705 137.485 27.9868 137.456 28.1062C137.416 28.2795 137.39 28.4558 137.378 28.6334C137.361 28.8633 137.349 29.1706 137.341 29.5529C137.334 29.9352 137.341 30.4399 137.341 31.067C137.341 31.6942 137.341 32.1989 137.341 32.5812C137.341 32.9635 137.361 33.2683 137.378 33.4932C137.391 33.6698 137.417 33.8453 137.456 34.0179C137.482 34.1359 137.523 34.25 137.578 34.3577C137.705 34.6339 137.906 34.8687 138.161 35.0348C138.436 35.2065 138.756 35.2934 139.08 35.2847C139.47 35.31 139.855 35.1817 140.152 34.9274C140.251 34.8443 140.335 34.7456 140.402 34.6351C140.474 34.5031 140.524 34.3606 140.552 34.2128C140.596 33.9955 140.622 33.7748 140.629 33.5532C140.629 33.3033 140.647 32.9535 140.647 32.5387H141.436C141.436 33.0035 141.436 33.3932 141.409 33.7131C141.395 33.9857 141.358 34.2567 141.296 34.5226C141.251 34.7138 141.177 34.8973 141.079 35.0673C140.987 35.2179 140.873 35.3543 140.742 35.4721C140.28 35.8609 139.688 36.0592 139.085 36.0268Z" fill="white"/>
  <path d="M145.815 35.956C145.166 35.956 144.691 35.8061 144.396 35.5038C144.101 35.2015 143.956 34.6343 143.956 33.7947V26.9885H142.707V26.2739H143.956V24.1676H144.706V26.2739H146.49V26.9885H144.708V33.6998C144.708 34.3145 144.803 34.7242 144.998 34.9316C145.124 35.0447 145.272 35.1305 145.432 35.1838C145.592 35.2372 145.762 35.2568 145.93 35.2414C146.144 35.2428 146.357 35.2244 146.567 35.1865V35.8811C146.43 35.9061 146.3 35.9261 146.175 35.9385C146.05 35.951 145.93 35.956 145.815 35.956Z" fill="white"/>
  <path d="M156.727 22.6222V35.8973H155.957V34.8429C155.772 35.2141 155.484 35.5245 155.128 35.7374C154.772 35.9347 154.37 36.0347 153.963 36.0272C153.545 36.0446 153.132 35.9329 152.779 35.7074C152.461 35.4903 152.207 35.1917 152.044 34.8429C151.982 34.6939 151.932 34.5402 151.895 34.3832C151.849 34.1758 151.818 33.9653 151.802 33.7535C151.775 33.4887 151.757 33.1488 151.745 32.7291C151.732 32.3093 151.725 31.7596 151.725 31.0825C151.725 30.4054 151.725 29.8532 151.745 29.4284C151.765 29.0036 151.775 28.6563 151.802 28.394C151.818 28.1821 151.849 27.9717 151.895 27.7643C151.93 27.6124 151.98 27.4643 152.044 27.3221C152.21 26.9722 152.463 26.671 152.779 26.4476C153.129 26.2159 153.544 26.1005 153.963 26.1177C154.371 26.1099 154.773 26.2108 155.128 26.4101C155.483 26.6226 155.771 26.932 155.957 27.3021V22.6222H156.727ZM154.133 35.2951C154.387 35.306 154.64 35.2572 154.872 35.1526C155.104 35.0481 155.308 34.8906 155.468 34.693C155.792 34.2907 155.967 33.6935 155.967 32.9065V29.251C155.967 28.4614 155.802 27.8643 155.468 27.457C155.309 27.2572 155.105 27.0977 154.874 26.9913C154.642 26.8849 154.388 26.8348 154.133 26.8448C153.838 26.8267 153.544 26.9024 153.294 27.0613C153.044 27.2202 152.851 27.454 152.742 27.7294C152.704 27.8293 152.669 27.9392 152.637 28.0567C152.598 28.2336 152.573 28.4132 152.562 28.5939C152.544 28.8312 152.527 29.1461 152.517 29.5334C152.507 29.9206 152.497 30.4354 152.497 31.075C152.497 31.7146 152.497 32.2293 152.517 32.6166C152.537 33.0039 152.544 33.3162 152.562 33.5486C152.574 33.7284 152.599 33.9071 152.637 34.0833C152.666 34.1983 152.701 34.3117 152.742 34.4231C152.853 34.6957 153.048 34.9264 153.297 35.0828C153.547 35.2393 153.839 35.3135 154.133 35.2951Z" fill="white"/>
  <path d="M162.496 34.9213C162.594 34.8385 162.678 34.7407 162.746 34.6314C162.818 34.5013 162.872 34.3617 162.905 34.2167C162.956 34.0033 162.988 33.7859 163 33.567C163.018 33.3172 163.028 32.9798 163.028 32.5901H163.8C163.8 33.0423 163.785 33.4196 163.76 33.7269C163.742 33.9905 163.702 34.2521 163.64 34.509C163.593 34.6982 163.517 34.8788 163.413 35.0437C163.315 35.1934 163.198 35.3295 163.065 35.4485C162.584 35.8558 161.966 36.064 161.336 36.0306C160.207 36.0306 159.442 35.5859 159.043 34.6964C158.993 34.559 158.945 34.4165 158.9 34.2741C158.848 34.0772 158.817 33.8754 158.808 33.672C158.788 33.4221 158.773 33.0823 158.76 32.6725C158.748 32.2628 158.74 31.7355 158.74 31.0834C158.74 30.4312 158.74 29.9015 158.76 29.4943C158.78 29.087 158.788 28.7447 158.808 28.4948C158.818 28.289 158.849 28.0848 158.9 27.8852C158.945 27.7353 158.993 27.5904 159.043 27.4529C159.222 27.0426 159.52 26.6949 159.897 26.4535C160.322 26.2063 160.808 26.085 161.299 26.1037C161.782 26.0874 162.26 26.205 162.681 26.4435C163.045 26.6629 163.331 26.9916 163.498 27.383C163.561 27.5334 163.614 27.6878 163.658 27.8452C163.71 28.0516 163.745 28.2623 163.76 28.4749C163.785 28.7247 163.802 29.0745 163.807 29.4893C163.812 29.904 163.807 30.4363 163.807 31.0884H159.507C159.507 31.7005 159.507 32.1978 159.507 32.5726C159.507 32.9474 159.527 33.2522 159.547 33.4846C159.557 33.6646 159.582 33.8434 159.622 34.0193C159.65 34.1369 159.691 34.251 159.745 34.3591C160.02 34.9854 160.539 35.2985 161.304 35.2985C161.735 35.3352 162.164 35.1996 162.496 34.9213ZM161.311 26.8558C160.533 26.8558 160.014 27.1631 159.752 27.7777C159.711 27.8754 159.676 27.9756 159.647 28.0776C159.611 28.2263 159.586 28.3774 159.572 28.5298C159.555 28.7172 159.537 28.9621 159.525 29.2619C159.512 29.5618 159.507 29.9515 159.507 30.4288H163.043C163.043 29.929 163.043 29.5418 163.043 29.2344C163.043 28.9271 163.023 28.6772 163.005 28.4849C162.993 28.3323 162.968 28.1811 162.93 28.0326C162.9 27.9342 162.865 27.8375 162.825 27.7427C162.557 27.1514 162.053 26.8558 161.311 26.8558Z" fill="white"/>
  <path d="M167.706 36.0297C166.707 36.0297 166.041 35.6791 165.708 34.9778C165.67 34.8779 165.635 34.7729 165.605 34.668C165.568 34.5354 165.542 34.4001 165.528 34.2632C165.511 34.0967 165.499 33.8868 165.49 33.6336C165.49 33.3837 165.49 33.0539 165.49 32.6641H166.24C166.24 33.0289 166.24 33.3188 166.24 33.5386C166.24 33.7585 166.257 33.9359 166.27 34.0758C166.277 34.1835 166.293 34.2904 166.317 34.3956C166.336 34.4736 166.364 34.549 166.4 34.6205C166.5 34.8295 166.661 35.0035 166.862 35.1202C167.119 35.2572 167.408 35.3219 167.699 35.3076C167.96 35.3177 168.221 35.2796 168.469 35.1952C168.641 35.1329 168.789 35.0174 168.891 34.8654C168.991 34.7062 169.056 34.5272 169.081 34.3407C169.113 34.1063 169.128 33.87 169.126 33.6336C169.126 33.2588 169.113 32.949 169.091 32.7041C169.073 32.4849 169.004 32.2728 168.891 32.0844C168.77 31.9002 168.606 31.7484 168.414 31.6422C168.127 31.4816 167.832 31.3372 167.529 31.2099C167.198 31.0655 166.878 30.8985 166.57 30.7102C166.339 30.5722 166.138 30.3906 165.977 30.1755C165.827 29.9624 165.727 29.7181 165.685 29.4609C165.63 29.1189 165.605 28.7728 165.61 28.4265C165.605 28.1469 165.617 27.8673 165.648 27.5894C165.67 27.4307 165.715 27.2759 165.78 27.1297C166.068 26.4634 166.695 26.1302 167.659 26.1302C168.623 26.1302 169.251 26.4501 169.54 27.0897C169.58 27.1818 169.614 27.2761 169.643 27.3721C169.679 27.494 169.702 27.6198 169.71 27.7468C169.723 27.8968 169.733 28.0867 169.738 28.3115C169.743 28.5364 169.738 28.8262 169.738 29.176H168.988C168.988 28.8637 168.988 28.6089 168.988 28.4265C168.988 28.2441 168.973 28.0767 168.961 27.9567C168.952 27.8616 168.936 27.7673 168.913 27.6744C168.893 27.6069 168.873 27.5345 168.848 27.4595C168.658 27.0447 168.263 26.8373 167.662 26.8373C167.428 26.8274 167.195 26.8666 166.977 26.9523C166.819 27.0169 166.685 27.1285 166.592 27.2721C166.498 27.4234 166.44 27.5944 166.422 27.7718C166.396 27.9874 166.383 28.2044 166.385 28.4215C166.379 28.7078 166.401 28.9939 166.45 29.276C166.486 29.4757 166.572 29.6631 166.7 29.8207C166.84 29.9802 167.009 30.1109 167.199 30.2055C167.404 30.3204 167.677 30.4553 168.016 30.6003C168.379 30.7474 168.725 30.9307 169.051 31.1474C169.279 31.3001 169.474 31.4983 169.623 31.7296C169.764 31.9635 169.85 32.2268 169.873 32.4992C169.908 32.8679 169.924 33.2382 169.92 33.6086C169.925 33.9039 169.913 34.1993 169.883 34.4931C169.86 34.6667 169.81 34.8355 169.733 34.9928C169.421 35.6841 168.746 36.0297 167.706 36.0297Z" fill="white"/>
  <path d="M172.19 24.674C172.111 24.6768 172.031 24.6631 171.957 24.6338C171.882 24.6045 171.815 24.5603 171.758 24.5038C171.702 24.4473 171.658 24.3798 171.628 24.3055C171.599 24.2312 171.586 24.1516 171.588 24.0718C171.585 23.9934 171.599 23.9153 171.628 23.8425C171.657 23.7697 171.702 23.704 171.758 23.6495C171.879 23.5464 172.032 23.4897 172.19 23.4897C172.349 23.4897 172.502 23.5464 172.623 23.6495C172.679 23.704 172.723 23.7697 172.753 23.8425C172.782 23.9153 172.796 23.9934 172.793 24.0718C172.795 24.1516 172.782 24.2312 172.752 24.3055C172.723 24.3798 172.679 24.4473 172.622 24.5038C172.566 24.5603 172.498 24.6045 172.424 24.6338C172.35 24.6631 172.27 24.6768 172.19 24.674ZM171.816 26.273H172.565V35.9002H171.816V26.273Z" fill="white"/>
  <path d="M179.603 26.2714V35.5962C179.603 36.0726 179.591 36.5299 179.566 36.968C179.549 37.3705 179.457 37.7664 179.294 38.1348C179.136 38.4725 178.88 38.7547 178.559 38.9444C178.121 39.1694 177.631 39.2738 177.14 39.2467C176.287 39.2467 175.673 39.0368 175.298 38.617C174.924 38.1973 174.735 37.5734 174.734 36.7456H175.503C175.47 37.2223 175.6 37.6961 175.871 38.0898C176.115 38.398 176.545 38.5521 177.16 38.5521C177.911 38.5521 178.406 38.2822 178.644 37.7425C178.683 37.6624 178.715 37.5787 178.739 37.4927C178.768 37.3788 178.786 37.2626 178.794 37.1453C178.794 37.0004 178.816 36.813 178.824 36.5807C178.831 36.3483 178.824 36.051 178.824 35.6887V34.8242C178.677 35.0956 178.477 35.3346 178.235 35.5268C177.994 35.7191 177.716 35.8606 177.419 35.943C177.121 36.0253 176.81 36.0468 176.504 36.0061C176.198 35.9654 175.904 35.8634 175.638 35.7061C175.318 35.4943 175.066 35.1939 174.914 34.8416C174.851 34.6927 174.801 34.5389 174.764 34.3819C174.718 34.1744 174.686 33.964 174.669 33.7522C174.644 33.4874 174.626 33.1476 174.614 32.7278C174.601 32.3081 174.594 31.7583 174.594 31.0812C174.594 30.4041 174.594 29.8519 174.614 29.4271C174.634 29.0024 174.644 28.6551 174.669 28.3927C174.686 28.181 174.718 27.9706 174.764 27.7631C174.799 27.6112 174.849 27.4631 174.914 27.3208C175.096 26.9586 175.375 26.6541 175.72 26.4414C176.066 26.2286 176.463 26.116 176.869 26.116C177.274 26.116 177.672 26.2286 178.017 26.4414C178.362 26.6541 178.642 26.9586 178.824 27.3208V26.2689L179.603 26.2714ZM177.01 35.2964C177.264 35.3072 177.517 35.2584 177.749 35.1539C177.98 35.0493 178.184 34.8919 178.344 34.6942C178.669 34.2928 178.831 33.6973 178.831 32.9077V29.2523C178.831 28.4627 178.669 27.8647 178.344 27.4582C178.186 27.2585 177.982 27.0989 177.75 26.9926C177.518 26.8862 177.265 26.836 177.01 26.8461C176.715 26.8313 176.423 26.9085 176.173 27.0669C175.924 27.2253 175.73 27.4572 175.618 27.7306C175.577 27.8377 175.542 27.947 175.513 28.0579C175.475 28.2349 175.45 28.4144 175.438 28.5951C175.421 28.8325 175.403 29.1473 175.391 29.5346C175.378 29.9219 175.373 30.4366 175.373 31.0762C175.373 31.7159 175.373 32.2306 175.391 32.6179C175.408 33.0052 175.421 33.3175 175.438 33.5498C175.451 33.7296 175.476 33.9083 175.513 34.0846C175.541 34.1999 175.576 34.3133 175.618 34.4244C175.733 34.6949 175.928 34.9238 176.177 35.0798C176.426 35.2358 176.716 35.3114 177.01 35.2964Z" fill="white"/>
  <path d="M184.511 26.14C185.866 26.14 186.543 26.967 186.543 28.6211V35.8995H185.771V28.736C185.771 28.0831 185.658 27.6058 185.433 27.3043C185.298 27.1462 185.126 27.0229 184.933 26.9447C184.74 26.8664 184.531 26.8355 184.324 26.8546C184.089 26.844 183.854 26.8866 183.638 26.9792C183.422 27.0718 183.229 27.2119 183.075 27.3893C182.766 27.7458 182.613 28.2696 182.615 28.9609V35.8995H181.865V26.2724H182.615V27.1919C182.791 26.8522 183.066 26.5742 183.404 26.3948C183.747 26.221 184.127 26.1335 184.511 26.14Z" fill="white"/>
  <path d="M25.0502 33.9011L28.001 37.5891C28.1213 37.7386 28.1968 37.9192 28.2187 38.1099C28.2407 38.3006 28.2082 38.4935 28.1251 38.6665C28.042 38.8395 27.9116 38.9855 27.7491 39.0875C27.5865 39.1896 27.3984 39.2435 27.2065 39.2431H5.40113C4.04066 39.2431 2.73592 38.7027 1.77392 37.7407C0.811926 36.7787 0.271484 35.474 0.271484 34.1135V5.12962C0.271484 3.76916 0.811926 2.46443 1.77392 1.50243C2.73592 0.540437 4.04066 2.472e-06 5.40113 2.472e-06H15.458C16.0669 -0.000819482 16.6584 0.203359 17.1371 0.579666L23.4911 5.57688C23.5961 5.65951 23.6839 5.76205 23.7493 5.87863C23.8147 5.9952 23.8565 6.12351 23.8723 6.25625C23.8881 6.389 23.8776 6.52355 23.8413 6.65221C23.805 6.78088 23.7437 6.90112 23.661 7.00608L21.1474 10.2093C21.0645 10.3145 20.9618 10.4023 20.845 10.4677C20.7282 10.5332 20.5996 10.575 20.4667 10.5908C20.3337 10.6066 20.199 10.596 20.0701 10.5597C19.9413 10.5234 19.8208 10.4621 19.7157 10.3792L14.8359 6.53884C14.4792 6.25928 14.0397 6.10633 13.5866 6.10409H7.73483C7.375 6.10409 7.0299 6.24704 6.77547 6.50148C6.52103 6.75592 6.37808 7.10101 6.37808 7.46084V31.7823C6.37808 31.9605 6.41318 32.1369 6.48136 32.3015C6.54954 32.4661 6.64948 32.6157 6.77547 32.7417C6.90145 32.8676 7.05101 32.9676 7.21562 33.0357C7.38023 33.1039 7.55666 33.1391 7.73483 33.1391H23.4611C23.7661 33.1388 24.0674 33.2071 24.3425 33.339C24.6175 33.4709 24.8594 33.663 25.0502 33.9011Z" fill="white"/>
  <path d="M44.049 39.2196H34.2844C33.8386 39.2194 33.3986 39.1187 32.9972 38.9249C32.5957 38.7311 32.2431 38.4492 31.9657 38.1002L20.9968 24.3154C19.9353 22.9803 19.3574 21.3249 19.3574 19.6192C19.3574 17.9136 19.9353 16.2582 20.9968 14.9231L31.9657 1.13579C32.2436 0.787548 32.5963 0.506321 32.9977 0.312977C33.3991 0.119633 33.8389 0.0191389 34.2844 0.0189209H45.0734C46.1618 0.0189207 47.2056 0.451094 47.9754 1.22043C48.7452 1.98977 49.178 3.03331 49.1786 4.12165V34.0899C49.1786 35.4504 48.6382 36.7552 47.6762 37.7172C46.7142 38.6792 45.4095 39.2196 44.049 39.2196ZM36.7581 33.163H41.7553C42.1151 33.163 42.4602 33.02 42.7146 32.7656C42.9691 32.5111 43.112 32.166 43.112 31.8062V7.4323C43.112 7.07247 42.9691 6.72738 42.7146 6.47294C42.4602 6.2185 42.1151 6.07555 41.7553 6.07555H36.7581C36.4518 6.07565 36.1495 6.14465 35.8736 6.27743C35.5976 6.41021 35.3551 6.60336 35.1639 6.84261L26.6687 17.5292C26.1966 18.1235 25.9397 18.8602 25.9397 19.6192C25.9397 20.3783 26.1966 21.115 26.6687 21.7093L35.1639 32.3959C35.3551 32.6351 35.5976 32.8283 35.8736 32.9611C36.1495 33.0939 36.4518 33.1629 36.7581 33.163Z" fill="white"/>
</svg>