<svg xmlns="http://www.w3.org/2000/svg" width="149" height="27" viewBox="0 0 149 27" fill="none">
  <path d="M47.3358 11.02C47.0917 11.5739 46.6726 12.0365 46.1401 12.3399L47.0833 14.2526L45.411 14.9616L44.4176 12.7509H44.334C43.6808 12.7757 43.0334 12.622 42.4643 12.3071C41.9628 12.0008 41.5689 11.5517 41.3355 11.02C41.254 10.8357 41.1864 10.6457 41.1331 10.4518C41.0686 10.1973 41.0239 9.93832 40.9994 9.6772C40.9659 9.36278 40.9425 8.97304 40.9325 8.50633C40.9224 8.03962 40.9141 7.44846 40.9141 6.73284C40.9141 6.01722 40.9141 5.42277 40.9325 4.96098C40.9509 4.49918 40.9659 4.10289 40.9994 3.79011C41.0239 3.52844 41.0686 3.26897 41.1331 3.0139C41.1866 2.82 41.2543 2.63011 41.3355 2.44567C41.5685 1.9141 41.9625 1.46539 42.4643 1.16018C43.0419 0.867557 43.6828 0.714844 44.3332 0.714844C44.9835 0.714844 45.6244 0.867557 46.202 1.16018C46.7038 1.46539 47.0978 1.9141 47.3308 2.44567C47.412 2.63011 47.4797 2.82 47.5332 3.0139C47.5977 3.26897 47.6424 3.52844 47.667 3.79011C47.7004 4.10234 47.7233 4.49263 47.7355 4.96098C47.7456 5.42769 47.7522 6.01886 47.7522 6.73284C47.7522 7.44682 47.7522 8.04289 47.7355 8.50633C47.7188 8.96976 47.7004 9.36278 47.667 9.6772C47.6424 9.93832 47.5977 10.1973 47.5332 10.4518C47.4816 10.6456 47.4156 10.8355 47.3358 11.02ZM43.1433 10.2454C43.232 10.4625 43.3845 10.6488 43.5814 10.7809C43.8137 10.9055 44.0742 10.9708 44.339 10.9708C44.6038 10.9708 44.8643 10.9055 45.0966 10.7809C45.2927 10.6479 45.4449 10.4618 45.5347 10.2454C45.5813 10.1479 45.615 10.045 45.6351 9.9392C45.6642 9.76185 45.6838 9.5831 45.6936 9.40371C45.7103 9.16244 45.7215 8.83002 45.727 8.40644C45.727 7.98394 45.7354 7.4239 45.7354 6.73284C45.7354 6.04179 45.7354 5.48336 45.727 5.05923C45.7187 4.6351 45.7103 4.30431 45.6936 4.06195C45.6838 3.88257 45.6642 3.70382 45.6351 3.52646C45.615 3.42063 45.5813 3.31773 45.5347 3.22024C45.4449 3.00385 45.2927 2.81776 45.0966 2.68475C44.8643 2.56019 44.6038 2.4949 44.339 2.4949C44.0742 2.4949 43.8137 2.56019 43.5814 2.68475C43.3845 2.81683 43.232 3.00321 43.1433 3.22024C43.0954 3.31736 43.0611 3.42036 43.0413 3.52646C43.0121 3.70382 42.9926 3.88257 42.9827 4.06195C42.966 4.30431 42.9549 4.63674 42.9493 5.05923C42.9493 5.48336 42.9409 6.04179 42.9409 6.73284C42.9409 7.4239 42.9409 7.98394 42.9493 8.40644C42.9577 8.82893 42.966 9.16299 42.9827 9.40371C42.9926 9.5831 43.0121 9.76185 43.0413 9.9392C43.0611 10.0453 43.0954 10.1483 43.1433 10.2454Z" fill="#4C3931"/>
  <path d="M52.1815 12.7521C51.0922 12.7521 50.3118 12.513 49.8402 12.0348C49.3686 11.5567 49.1328 10.823 49.1328 9.83392V0.914062H51.0861V9.76841C51.0631 10.0952 51.152 10.4202 51.3386 10.692C51.507 10.8994 51.7857 11.0037 52.1748 11.0048C52.5639 11.0059 52.8476 10.9016 53.026 10.692C53.2183 10.4224 53.3103 10.0964 53.2869 9.76841V0.914062H55.2402V9.83392C55.2402 10.823 55.0016 11.5567 54.5244 12.0348C54.0473 12.513 53.2663 12.7521 52.1815 12.7521Z" fill="#4C3931"/>
  <path d="M67.3178 12.7363C65.8238 12.7363 64.8132 12.1594 64.2858 11.0054C64.2058 10.8244 64.1415 10.637 64.0935 10.4454C64.0331 10.1953 63.9907 9.94139 63.9664 9.68553C63.933 9.3793 63.9096 8.98794 63.8995 8.51468C63.8895 8.04142 63.8828 7.45026 63.8828 6.73464C63.8828 6.01902 63.8828 5.42458 63.8995 4.95459C63.9163 4.48461 63.933 4.09159 63.9664 3.78373C63.9905 3.52838 64.033 3.27501 64.0935 3.02553C64.1415 2.83336 64.2058 2.64546 64.2858 2.46383C64.5204 1.93072 64.9176 1.4817 65.423 1.17834C65.995 0.862941 66.6451 0.708778 67.3011 0.732927C68.2208 0.732927 68.9728 0.98566 69.557 1.49112C69.9186 1.81584 70.1809 2.23255 70.3146 2.69474C70.3987 2.97755 70.4547 3.26766 70.4818 3.56102C70.5153 3.88853 70.532 4.2597 70.532 4.67456H68.5135C68.5135 4.34704 68.5051 4.07193 68.4884 3.85577C68.476 3.67614 68.4531 3.49735 68.4199 3.32028C68.4021 3.20489 68.3624 3.0938 68.3028 2.99277C68.2519 2.91565 68.1924 2.84427 68.1255 2.77989C68.0134 2.69145 67.889 2.61919 67.7559 2.56536C67.5959 2.5057 67.4254 2.47733 67.2542 2.48184C67.0132 2.46512 66.773 2.52302 66.5674 2.64732C66.3618 2.77162 66.2014 2.95605 66.1087 3.17453C66.0715 3.27421 66.0402 3.37592 66.015 3.47914C65.9795 3.65912 65.9571 3.84134 65.9481 4.02444C65.9314 4.27226 65.9203 4.60742 65.9147 5.02992C65.9147 5.45241 65.9147 6.02227 65.9147 6.73625C65.9147 7.45024 65.9147 8.00375 65.9147 8.42624C65.9147 8.84874 65.9314 9.18608 65.9481 9.43335C65.9576 9.61858 65.9799 9.80297 66.015 9.98521C66.0394 10.0913 66.0706 10.1958 66.1087 10.298C66.311 10.7598 66.6973 10.9907 67.271 10.9907C67.5903 11.0037 67.9028 10.8978 68.1456 10.6943C68.2158 10.6354 68.2757 10.5657 68.3229 10.4879C68.3797 10.3857 68.4192 10.2751 68.4399 10.1604C68.4739 9.98347 68.4968 9.80464 68.5085 9.62494C68.5252 9.40659 68.5336 9.12657 68.5336 8.78486H70.5471C70.5493 9.15629 70.5297 9.52754 70.4885 9.89678C70.4553 10.192 70.3994 10.4843 70.3213 10.7712C70.2561 11.0117 70.157 11.2421 70.027 11.4558C69.9034 11.653 69.75 11.8308 69.5721 11.983C69.0347 12.4863 68.2833 12.7374 67.3178 12.7363Z" fill="#4C3931"/>
  <path d="M71.9531 0.914062H73.9064V5.54676H76.1958V0.914062H78.1491V12.5556H76.1958V7.27767H73.9064V12.5556H71.9531V0.914062Z" fill="#4C3931"/>
  <path d="M82.0625 0.914062H84.5376L86.3236 8.48128L88.1414 0.914062H90.583V12.5556H88.7134V4.72306L86.9123 12.5556H85.7416L83.9238 4.72306V12.5556H82.0625V0.914062Z" fill="#4C3931"/>
  <path d="M96.2579 8.81207L95.2311 2.4632H95.1976L94.1708 8.81207L93.9016 10.4611L93.5671 12.5556H91.5938L93.6992 0.914062H96.7295L98.8182 12.5556H96.8649L96.5305 10.4611L96.2579 8.81207Z" fill="#4C3931"/>
  <path d="M99.8594 0.914062H101.796L104.626 8.20126V0.914062H106.509V12.5556H104.609L101.746 5.06858V12.5556H99.8594V0.914062Z" fill="#4C3931"/>
  <path d="M108.109 0.914062H110.063V5.54676H112.36V0.914062H114.314V12.5556H112.36V7.27767H110.063V12.5556H108.109V0.914062Z" fill="#4C3931"/>
  <path d="M118.383 0.912525H121.296C121.969 0.88913 122.637 1.03935 123.233 1.34813C123.738 1.63371 124.136 2.07055 124.368 2.59432C124.446 2.75662 124.511 2.92471 124.562 3.09704C124.623 3.32674 124.663 3.5613 124.681 3.79793C124.708 4.09378 124.727 4.47588 124.739 4.94423C124.749 5.40439 124.756 6.00374 124.756 6.74556C124.756 7.48738 124.756 8.08182 124.739 8.54689C124.723 9.01196 124.708 9.38695 124.681 9.68335C124.663 9.91998 124.623 10.1545 124.562 10.3842C124.511 10.5567 124.446 10.7248 124.368 10.887C124.136 11.4108 123.738 11.8476 123.233 12.1332C122.635 12.445 121.964 12.5959 121.288 12.5704H118.383V0.912525ZM121.094 10.8542C121.414 10.8701 121.733 10.8053 122.02 10.6659C122.25 10.5335 122.432 10.3343 122.542 10.096C122.577 10.0015 122.608 9.90533 122.634 9.80781C122.67 9.64618 122.693 9.48185 122.701 9.31654C122.719 9.09055 122.729 8.77778 122.734 8.37657C122.739 7.97537 122.744 7.43989 122.744 6.76849C122.744 6.09708 122.744 5.5272 122.734 5.11944C122.724 4.71168 122.719 4.394 122.701 4.1631C122.693 3.99399 122.671 3.82583 122.634 3.66038C122.605 3.55557 122.575 3.46059 122.542 3.37216C122.432 3.13464 122.25 2.93617 122.02 2.80391C121.733 2.66389 121.414 2.59849 121.094 2.61397H120.336V10.8575L121.094 10.8542Z" fill="#4C3931"/>
  <path d="M129.174 12.7521C128.086 12.7521 127.305 12.513 126.832 12.0348C126.36 11.5567 126.124 10.823 126.125 9.83392V0.914062H128.08V9.76841C128.057 10.0952 128.146 10.4202 128.332 10.692C128.5 10.8994 128.778 11.0037 129.169 11.0048C129.559 11.0059 129.842 10.9016 130.018 10.692C130.212 10.423 130.305 10.0967 130.281 9.76841V0.914062H132.234V9.83392C132.234 10.823 131.995 11.5567 131.518 12.0348C131.041 12.513 130.26 12.7521 129.174 12.7521Z" fill="#4C3931"/>
  <path d="M133.773 0.914062H135.71L138.538 8.20126V0.914062H140.424V12.5556H138.521L135.658 5.06858V12.5556H133.773V0.914062Z" fill="#4C3931"/>
  <path d="M148.567 6.53611V7.32871C148.567 7.95426 148.567 8.47499 148.55 8.88602C148.534 9.29705 148.517 9.63932 148.484 9.90788C148.458 10.1359 148.416 10.3619 148.358 10.5842C148.308 10.7622 148.243 10.9359 148.164 11.1033C147.659 12.195 146.705 12.7409 145.301 12.7409C144.645 12.765 143.995 12.6109 143.423 12.2955C142.914 11.9891 142.517 11.5336 142.288 10.9936C142.205 10.8188 142.14 10.6368 142.094 10.4499C142.034 10.1997 141.991 9.94584 141.966 9.69007C141.933 9.38385 141.911 8.99575 141.9 8.52904C141.888 8.06233 141.883 7.46461 141.883 6.73916C141.883 6.01372 141.883 5.41765 141.9 4.95095C141.916 4.48424 141.933 4.09612 141.966 3.78825C141.991 3.53301 142.034 3.27972 142.094 3.03008C142.14 2.84263 142.205 2.66 142.288 2.48475C142.515 1.94174 142.913 1.48321 143.423 1.17469C144.001 0.857951 144.656 0.703799 145.318 0.729279C146.249 0.729279 146.995 0.971083 147.557 1.45471C147.914 1.76924 148.168 2.17914 148.29 2.63378C148.438 3.26906 148.509 3.91937 148.5 4.57102H146.547C146.545 4.16032 146.517 3.75013 146.463 3.34284C146.437 3.11317 146.33 2.8998 146.159 2.74022C145.914 2.54261 145.601 2.44263 145.284 2.46018C144.701 2.46018 144.308 2.69765 144.114 3.16927C144.066 3.2657 144.032 3.36823 144.013 3.47385C143.983 3.65433 143.962 3.8364 143.953 4.01916C143.936 4.26643 143.926 4.60214 143.92 5.02463C143.913 5.44712 143.92 6.01701 143.92 6.73099C143.92 7.44497 143.92 8.01483 143.92 8.43732C143.92 8.85982 143.936 9.19552 143.953 9.4428C143.962 9.6259 143.985 9.80814 144.02 9.98812C144.045 10.0913 144.076 10.193 144.114 10.2927C144.317 10.7654 144.726 11.0018 145.343 11.0018C145.9 11.0018 146.282 10.7873 146.488 10.3582C146.522 10.2927 146.547 10.2234 146.564 10.1519C146.585 10.0439 146.596 9.93429 146.597 9.82436C146.597 9.67698 146.609 9.47227 146.614 9.21517C146.619 8.95807 146.614 8.61256 146.614 8.18351H145.335V6.53447L148.567 6.53611Z" fill="#4C3931"/>
  <path d="M60.6502 8.81207L59.6217 2.4632H59.5883L58.5614 8.81207L58.2922 10.4611L57.9577 12.5556H55.9844L58.0898 0.914062H61.1218L63.2089 12.5556H61.2556L60.9211 10.4611L60.6502 8.81207Z" fill="#4C3931"/>
  <path d="M67.9851 18.5348C68.0191 18.611 68.0481 18.6892 68.072 18.769C68.1011 18.8701 68.1202 18.9738 68.1289 19.0785C68.1423 19.2019 68.1506 19.3558 68.154 19.5403C68.154 19.7254 68.154 19.9563 68.154 20.2363V24.2418H67.6372V23.5999C67.3696 24.0846 66.9209 24.3269 66.291 24.3269C66.036 24.3398 65.7815 24.2932 65.5485 24.191C65.3804 24.1085 65.2422 23.9776 65.1521 23.816C65.06 23.6434 65.0032 23.4548 64.9849 23.2609C64.9648 23.0513 64.9531 22.8236 64.9531 22.578C64.9531 22.3798 64.9531 22.2177 64.9531 22.0867C64.9531 21.9557 64.9648 21.8509 64.9732 21.7592C64.9793 21.6851 64.9894 21.6113 65.0033 21.5381C65.0169 21.4787 65.0359 21.4206 65.0602 21.3646C65.1208 21.2366 65.2074 21.122 65.3146 21.0277C65.4218 20.9334 65.5475 20.8614 65.6839 20.816C66.056 20.702 66.4449 20.65 66.8345 20.662H67.6272V20.2314C67.6272 19.9759 67.6272 19.7663 67.6272 19.6025C67.6272 19.4388 67.6155 19.3029 67.6071 19.1964C67.6022 19.1109 67.5899 19.026 67.5703 18.9426C67.5547 18.8861 67.5334 18.8312 67.5068 18.7788C67.373 18.4655 67.0753 18.3094 66.6138 18.3105C66.1522 18.3116 65.8462 18.4721 65.6956 18.7919C65.6689 18.8332 65.6497 18.8786 65.6388 18.9262C65.6238 18.9869 65.6154 19.0489 65.6137 19.1113C65.6137 19.185 65.6137 19.275 65.6003 19.3946C65.5869 19.5141 65.6003 19.6615 65.6003 19.8515H65.0986C65.0986 19.6369 65.0986 19.4601 65.0986 19.3209C65.0986 19.1817 65.1086 19.067 65.117 18.9753C65.1232 18.8959 65.1384 18.8174 65.1622 18.7412C65.1822 18.6757 65.2056 18.6102 65.2307 18.5447C65.4481 18.0763 65.9136 17.8421 66.6271 17.8421C66.9219 17.8274 67.2159 17.8836 67.4834 18.0059C67.706 18.1227 67.8826 18.3088 67.9851 18.5348ZM66.4231 23.8586C66.9348 23.8586 67.2877 23.6533 67.4817 23.2429C67.5157 23.1674 67.5425 23.089 67.562 23.0087C67.5877 22.901 67.6051 22.7915 67.6138 22.6812C67.6261 22.5502 67.6344 22.3799 67.6389 22.1702C67.6389 21.9606 67.6389 21.6921 67.6389 21.3629V21.1042H66.8964C66.6348 21.098 66.3733 21.1211 66.1171 21.173C65.953 21.2015 65.8028 21.2814 65.689 21.4006C65.5923 21.5255 65.5342 21.675 65.5217 21.8313C65.4938 22.0562 65.4809 22.2827 65.4833 22.5092C65.4833 22.7974 65.4833 23.0005 65.4966 23.1069C65.5032 23.211 65.5287 23.313 65.5719 23.4083C65.7057 23.7112 65.9967 23.8586 66.4231 23.8586Z" fill="#6A5248"/>
  <path d="M71.2137 17.9073C71.2639 17.9073 71.3107 17.9073 71.3525 17.9073L71.478 17.9269V18.4182C71.4381 18.4022 71.3956 18.3938 71.3525 18.3936H71.2137C71.0509 18.3793 70.8872 18.4084 70.74 18.4779C70.5928 18.5474 70.4675 18.6547 70.3776 18.7883C70.2028 19.0784 70.1158 19.4112 70.1267 19.7479V24.2348H69.625V17.9253H70.1267V18.5524C70.2087 18.3481 70.3567 18.1756 70.5481 18.0612C70.7515 17.9514 70.9817 17.8981 71.2137 17.9073Z" fill="#6A5248"/>
  <path d="M74.0735 24.3278C73.3422 24.3278 72.8472 24.0402 72.5885 23.4648C72.5471 23.3754 72.513 23.2828 72.4865 23.1881C72.456 23.0582 72.4353 22.9263 72.4246 22.7934C72.4079 22.6297 72.3979 22.4086 72.3929 22.1384C72.3878 21.8682 72.3929 21.521 72.3929 21.0854C72.3929 20.6499 72.3929 20.2978 72.3929 20.0259C72.3929 19.7541 72.4079 19.5347 72.4246 19.3709C72.4361 19.2381 72.4568 19.1063 72.4865 18.9763C72.5917 18.6027 72.8287 18.2778 73.1554 18.0592C73.4352 17.8982 73.756 17.8187 74.0802 17.83C74.4839 17.8108 74.8799 17.9431 75.1873 18.2C75.2764 18.2788 75.3525 18.3705 75.4131 18.4719C75.4768 18.5821 75.5257 18.6999 75.5586 18.8223C75.6001 18.9835 75.6275 19.1479 75.6405 19.3136C75.6572 19.5068 75.6656 19.7443 75.6656 20.0227H75.1372C75.1372 19.7748 75.1288 19.5718 75.1121 19.4135C75.0988 19.2765 75.0776 19.1404 75.0485 19.0057C75.0298 18.9111 74.9959 18.8199 74.9482 18.7355C74.9067 18.6656 74.8561 18.6012 74.7977 18.544C74.5958 18.3826 74.3406 18.2993 74.0802 18.3098C73.8626 18.3038 73.648 18.3608 73.4632 18.4735C73.2927 18.5821 73.1576 18.736 73.0735 18.9173C73.0395 18.9907 73.0121 19.0669 72.9916 19.1449C72.9645 19.2584 72.9477 19.3741 72.9414 19.4905C72.928 19.6411 72.9196 19.8425 72.9163 20.0931C72.913 20.3436 72.9163 20.6744 72.9163 21.0854C72.9163 21.4965 72.9163 21.8273 72.9163 22.0778C72.9163 22.3284 72.928 22.5282 72.9414 22.6755C72.9483 22.7913 72.9651 22.9064 72.9916 23.0194C73.0099 23.0965 73.0374 23.1713 73.0735 23.2421C73.1579 23.4231 73.2931 23.577 73.4632 23.6859C73.648 23.7986 73.8626 23.8556 74.0802 23.8497C74.3414 23.8662 74.5989 23.7822 74.7977 23.6155C74.8639 23.5612 74.9204 23.4964 74.9649 23.4239C75.0137 23.3376 75.0481 23.2441 75.0669 23.1472C75.0954 23.0046 75.1121 22.86 75.1171 22.7148C75.1171 22.5511 75.1288 22.3218 75.1288 22.05H75.6573C75.6573 22.3546 75.6572 22.61 75.6389 22.8197C75.63 22.9984 75.6048 23.1759 75.5636 23.3502C75.533 23.4755 75.484 23.5957 75.4181 23.7072C75.3564 23.8059 75.2804 23.8953 75.1923 23.9725C74.8798 24.2272 74.4792 24.3544 74.0735 24.3278Z" fill="#6A5248"/>
  <path d="M78.7788 17.847C79.6852 17.847 80.1384 18.3891 80.1384 19.4731V24.2434H79.6217V19.5485C79.6217 19.1205 79.5464 18.8077 79.3959 18.6101C79.3053 18.5063 79.1906 18.4253 79.0614 18.374C78.9322 18.3227 78.7922 18.3026 78.6534 18.3154C78.4961 18.3085 78.3392 18.3364 78.1944 18.397C78.0496 18.4577 77.9207 18.5496 77.8172 18.6658C77.6121 18.8995 77.5095 19.2428 77.5095 19.6959V24.2434H77.0078V15.543H77.5095V18.5365C77.6278 18.3141 77.8121 18.132 78.038 18.0141C78.2675 17.9005 78.5217 17.8431 78.7788 17.847Z" fill="#6A5248"/>
  <path d="M81.8721 16.8855C81.8186 16.8873 81.7654 16.8784 81.7156 16.8592C81.6659 16.84 81.6207 16.811 81.5829 16.774C81.5451 16.737 81.5155 16.6927 81.4959 16.644C81.4763 16.5953 81.4672 16.5432 81.469 16.4908C81.467 16.4395 81.4761 16.3883 81.4957 16.3406C81.5153 16.2929 81.545 16.2498 81.5827 16.2141C81.6633 16.1465 81.766 16.1094 81.8721 16.1094C81.9782 16.1094 82.0808 16.1465 82.1614 16.2141C82.1992 16.2498 82.2288 16.2929 82.2484 16.3406C82.268 16.3883 82.2771 16.4395 82.2751 16.4908C82.277 16.5432 82.2678 16.5953 82.2482 16.644C82.2286 16.6927 82.199 16.737 82.1612 16.774C82.1234 16.811 82.0782 16.84 82.0285 16.8592C81.9787 16.8784 81.9255 16.8873 81.8721 16.8855ZM81.6212 17.9335H82.1229V24.2431H81.6212V17.9335Z" fill="#6A5248"/>
  <path d="M85.2149 24.2807C84.7784 24.2807 84.4606 24.1825 84.265 23.9844C84.0693 23.7862 83.969 23.4145 83.969 22.8643V18.4035H83.1328V17.9352H83.969V16.5547H84.4707V17.9352H85.6664V18.4035H84.4707V22.802C84.4707 23.2049 84.5353 23.474 84.6647 23.6093C84.7488 23.6834 84.8476 23.7397 84.9549 23.7747C85.0623 23.8096 85.1758 23.8225 85.2885 23.8124C85.432 23.8133 85.5753 23.8012 85.7166 23.7764V24.2316C85.6229 24.248 85.536 24.2611 85.4523 24.2693C85.3687 24.2775 85.2901 24.2807 85.2149 24.2807Z" fill="#6A5248"/>
  <path d="M89.1447 23.6C89.2105 23.5458 89.2669 23.4817 89.3119 23.41C89.361 23.325 89.3971 23.2334 89.4189 23.1382C89.4538 22.9985 89.475 22.856 89.4825 22.7124C89.4958 22.5486 89.5009 22.3276 89.5009 22.0721H90.0176C90.0176 22.3685 90.0176 22.6158 89.9925 22.8172C89.9799 22.99 89.9525 23.1614 89.9106 23.3298C89.8791 23.4535 89.8284 23.5717 89.7601 23.6802C89.6943 23.7783 89.6156 23.8675 89.526 23.9455C89.204 24.2126 88.79 24.3491 88.3687 24.327C87.615 24.327 87.1033 24.0356 86.8335 23.4526C86.8 23.3625 86.7683 23.2692 86.7398 23.1758C86.7037 23.047 86.6824 22.9146 86.6763 22.7812C86.6629 22.6174 86.6529 22.3947 86.6445 22.1261C86.6362 21.8576 86.6328 21.512 86.6328 21.0846C86.6328 20.6572 86.6328 20.3101 86.6445 20.0431C86.6562 19.7762 86.6629 19.5519 86.6763 19.3881C86.6829 19.2531 86.7042 19.1191 86.7398 18.9886C86.7683 18.8903 86.8 18.7953 86.8335 18.7053C86.9538 18.4364 87.1529 18.2084 87.4054 18.0502C87.6925 17.9018 88.0123 17.8242 88.3369 17.8242C88.6616 17.8242 88.9813 17.9018 89.2684 18.0502C89.5123 18.194 89.7037 18.4095 89.8153 18.666C89.8576 18.7645 89.8934 18.8657 89.9223 18.9689C89.9583 19.1041 89.9818 19.2422 89.9925 19.3816C90.0093 19.5453 90.0193 19.7746 90.0243 20.0464C90.0293 20.3183 90.0243 20.6671 90.0243 21.0945H87.1429C87.1429 21.4957 87.1429 21.8215 87.1429 22.0672C87.1429 22.3128 87.1546 22.5126 87.168 22.6649C87.1746 22.7829 87.1914 22.9001 87.2181 23.0153C87.2365 23.0924 87.264 23.1672 87.3001 23.238C87.484 23.6485 87.8324 23.8538 88.3453 23.8538C88.6355 23.8759 88.9229 23.7846 89.1447 23.6ZM88.352 18.3139C87.8302 18.3139 87.4818 18.5153 87.3068 18.9181C87.2791 18.9819 87.2562 19.0476 87.2382 19.1146C87.2124 19.2118 87.1951 19.311 87.1864 19.411C87.1746 19.5339 87.1646 19.6943 87.1563 19.8909C87.1479 20.0874 87.1429 20.3428 87.1429 20.6556H89.5092C89.5092 20.3281 89.5092 20.0743 89.5092 19.8728C89.5092 19.6714 89.4975 19.5077 89.4841 19.3816C89.4764 19.2815 89.4596 19.1823 89.434 19.0852C89.4147 19.0205 89.3912 18.957 89.3637 18.8952C89.1842 18.5076 88.847 18.3139 88.352 18.3139Z" fill="#6A5248"/>
  <path d="M92.9071 24.3243C92.1779 24.3243 91.6829 24.0366 91.422 23.4613C91.3804 23.3721 91.3469 23.2795 91.3217 23.1845C91.2912 23.0547 91.2705 22.9228 91.2598 22.7899C91.2431 22.6261 91.2314 22.4051 91.228 22.1349C91.2247 21.8647 91.228 21.5175 91.228 21.0819C91.228 20.6463 91.228 20.2942 91.228 20.0224C91.228 19.7505 91.2431 19.5311 91.2598 19.3674C91.2713 19.2346 91.292 19.1027 91.3217 18.9727C91.3449 18.8793 91.3786 18.7887 91.422 18.7025C91.5358 18.4331 91.7313 18.2044 91.9823 18.0475C92.2621 17.8867 92.5828 17.8072 92.9071 17.8182C93.3113 17.7991 93.7077 17.9315 94.0158 18.1883C94.1049 18.2671 94.181 18.3587 94.2416 18.4602C94.3053 18.5704 94.3542 18.6881 94.3871 18.8106C94.4278 18.9719 94.4552 19.1362 94.469 19.3019C94.4858 19.4951 94.4941 19.7325 94.4941 20.0109H93.9623C93.9623 19.7631 93.9539 19.5601 93.9372 19.4018C93.9231 19.2649 93.9019 19.1288 93.8737 18.994C93.8549 18.8993 93.8211 18.8082 93.7733 18.7238C93.7313 18.6538 93.6801 18.5894 93.6212 18.5322C93.4196 18.3703 93.1642 18.2869 92.9037 18.298C92.6866 18.2923 92.4726 18.3493 92.2883 18.4618C92.1179 18.5703 91.9827 18.7243 91.8986 18.9056C91.8639 18.9787 91.8365 19.0549 91.8167 19.1332C91.7897 19.2468 91.7724 19.3623 91.7649 19.4787C91.7532 19.6294 91.7448 19.8308 91.7398 20.0813C91.7348 20.3319 91.7398 20.6627 91.7398 21.0737C91.7398 21.4847 91.7398 21.8155 91.7398 22.0661C91.7398 22.3166 91.7532 22.5164 91.7649 22.6638C91.773 22.7796 91.7904 22.8945 91.8167 23.0077C91.8343 23.085 91.8618 23.1598 91.8986 23.2304C91.9831 23.4114 92.1182 23.5653 92.2883 23.6742C92.4726 23.7867 92.6866 23.8436 92.9037 23.8379C93.1649 23.8545 93.4224 23.7705 93.6212 23.6038C93.6873 23.5493 93.7438 23.4846 93.7884 23.4122C93.8366 23.3257 93.8704 23.2323 93.8887 23.1354C93.9187 22.993 93.936 22.8484 93.9406 22.7031C93.9406 22.5393 93.9523 22.3101 93.9523 22.0382H94.4807C94.4807 22.3428 94.4807 22.5983 94.4623 22.8079C94.4535 22.9866 94.4283 23.1642 94.3871 23.3385C94.3565 23.4637 94.3075 23.584 94.2416 23.6955C94.1799 23.7942 94.1039 23.8835 94.0158 23.9608C93.7069 24.2156 93.3104 24.3455 92.9071 24.3243Z" fill="#6A5248"/>
  <path d="M97.4163 24.2807C96.9815 24.2807 96.6638 24.1825 96.4664 23.9844C96.2691 23.7862 96.1721 23.4145 96.1721 22.8643V18.4035H95.3359V17.9352H96.1721V16.5547H96.6738V17.9352H97.8679V18.4035H96.6755V22.802C96.6755 23.2049 96.739 23.4734 96.8695 23.6093C96.9535 23.6834 97.0524 23.7397 97.1597 23.7747C97.267 23.8096 97.3806 23.8225 97.4933 23.8124C97.6362 23.8133 97.779 23.8013 97.9197 23.7764V24.2316C97.8277 24.248 97.7408 24.2611 97.6571 24.2693C97.5735 24.2775 97.4932 24.2807 97.4163 24.2807Z" fill="#6A5248"/>
  <path d="M104.715 15.543V24.2434H104.2V23.5523C104.076 23.7956 103.883 23.9991 103.645 24.1386C103.407 24.2679 103.138 24.3334 102.866 24.3286C102.586 24.3399 102.309 24.2667 102.073 24.1189C101.86 23.9767 101.69 23.781 101.581 23.5523C101.54 23.4547 101.506 23.354 101.481 23.251C101.45 23.1151 101.43 22.9772 101.419 22.8384C101.401 22.6648 101.389 22.4421 101.381 22.167C101.372 21.8919 101.367 21.5316 101.367 21.0878C101.367 20.644 101.367 20.2821 101.381 20.0037C101.394 19.7253 101.401 19.4977 101.419 19.3258C101.43 19.1869 101.45 19.049 101.481 18.9131C101.505 18.8135 101.538 18.7165 101.581 18.6233C101.692 18.394 101.861 18.1965 102.073 18.0501C102.307 17.8983 102.585 17.8227 102.866 17.8339C103.138 17.8288 103.407 17.8949 103.645 18.0255C103.883 18.1648 104.076 18.3676 104.2 18.6101V15.543H104.715ZM102.979 23.8487C103.149 23.8559 103.319 23.8239 103.474 23.7553C103.629 23.6868 103.765 23.5836 103.872 23.4541C104.09 23.1904 104.207 22.7991 104.207 22.2832V19.8875C104.207 19.37 104.096 18.9786 103.872 18.7117C103.766 18.5807 103.63 18.4762 103.475 18.4065C103.32 18.3368 103.15 18.3039 102.979 18.3105C102.781 18.2986 102.585 18.3482 102.418 18.4523C102.25 18.5565 102.121 18.7097 102.048 18.8902C102.023 18.9557 101.999 19.0277 101.978 19.1047C101.952 19.2207 101.935 19.3384 101.927 19.4568C101.916 19.6123 101.904 19.8187 101.897 20.0725C101.891 20.3263 101.884 20.6637 101.884 21.0829C101.884 21.5021 101.884 21.8394 101.897 22.0933C101.911 22.3471 101.916 22.5518 101.927 22.7041C101.936 22.8219 101.952 22.939 101.978 23.0545C101.997 23.1299 102.021 23.2042 102.048 23.2772C102.123 23.4559 102.253 23.6071 102.42 23.7096C102.587 23.8121 102.783 23.8608 102.979 23.8487Z" fill="#6A5248"/>
  <path d="M108.576 23.6005C108.642 23.5463 108.698 23.4822 108.743 23.4106C108.792 23.3253 108.828 23.2338 108.85 23.1387C108.884 22.9989 108.906 22.8565 108.914 22.713C108.926 22.5492 108.932 22.3281 108.932 22.0727H109.449C109.449 22.3691 109.439 22.6164 109.422 22.8178C109.41 22.9905 109.383 23.162 109.342 23.3303C109.311 23.4544 109.259 23.5727 109.19 23.6808C109.125 23.7789 109.046 23.8681 108.957 23.9461C108.635 24.213 108.221 24.3495 107.8 24.3276C107.044 24.3276 106.532 24.0361 106.265 23.4532C106.231 23.3631 106.2 23.2697 106.17 23.1764C106.135 23.0473 106.114 22.9151 106.108 22.7818C106.094 22.618 106.084 22.3953 106.076 22.1267C106.068 21.8582 106.062 21.5126 106.062 21.0852C106.062 20.6578 106.063 20.3106 106.076 20.0437C106.089 19.7768 106.094 19.5524 106.108 19.3887C106.115 19.2538 106.135 19.12 106.17 18.9891C106.2 18.8909 106.231 18.7959 106.265 18.7058C106.385 18.4369 106.584 18.209 106.837 18.0508C107.121 17.8888 107.446 17.8093 107.775 17.8215C108.098 17.8108 108.418 17.8879 108.7 18.0442C108.944 18.188 109.135 18.4035 109.247 18.66C109.289 18.7586 109.325 18.8598 109.354 18.9629C109.389 19.0982 109.412 19.2363 109.422 19.3756C109.439 19.5393 109.451 19.7686 109.454 20.0404C109.457 20.3123 109.454 20.6611 109.454 21.0885H106.576C106.576 21.4897 106.576 21.8156 106.576 22.0612C106.576 22.3069 106.589 22.5066 106.603 22.6589C106.609 22.7769 106.626 22.8941 106.653 23.0094C106.671 23.0865 106.699 23.1612 106.735 23.2321C106.919 23.6426 107.267 23.8478 107.778 23.8478C108.067 23.8718 108.354 23.7829 108.576 23.6005ZM107.783 18.3144C107.263 18.3144 106.915 18.5159 106.74 18.9187C106.712 18.9827 106.689 19.0484 106.67 19.1152C106.645 19.2127 106.629 19.3117 106.619 19.4116C106.608 19.5344 106.596 19.6949 106.588 19.8914C106.579 20.0879 106.576 20.3434 106.576 20.6562H108.942C108.942 20.3287 108.942 20.0748 108.942 19.8734C108.942 19.672 108.929 19.5082 108.917 19.3821C108.909 19.2822 108.892 19.1831 108.867 19.0857C108.847 19.0213 108.824 18.9579 108.797 18.8958C108.617 18.5082 108.279 18.3144 107.783 18.3144Z" fill="#6A5248"/>
  <path d="M112.069 24.3279C111.4 24.3279 110.954 24.0981 110.731 23.6385C110.706 23.573 110.683 23.5042 110.663 23.4354C110.638 23.3486 110.621 23.2598 110.611 23.1702C110.6 23.061 110.592 22.9234 110.586 22.7575C110.586 22.5937 110.586 22.3776 110.586 22.1221H111.088C111.088 22.3612 111.088 22.5511 111.088 22.6953C111.088 22.8394 111.099 22.9556 111.108 23.0473C111.113 23.1179 111.123 23.188 111.139 23.2569C111.152 23.308 111.17 23.3575 111.195 23.4043C111.262 23.5413 111.37 23.6554 111.504 23.7318C111.676 23.8216 111.87 23.864 112.064 23.8546C112.239 23.8612 112.414 23.8363 112.579 23.781C112.695 23.7401 112.794 23.6644 112.862 23.5648C112.929 23.4604 112.972 23.3431 112.989 23.2209C113.01 23.0673 113.02 22.9125 113.019 22.7575C113.019 22.5118 113.011 22.3088 112.996 22.1483C112.984 22.0047 112.938 21.8657 112.862 21.7422C112.781 21.6214 112.672 21.5219 112.543 21.4523C112.351 21.3471 112.153 21.2525 111.951 21.169C111.729 21.0744 111.515 20.9649 111.308 20.8415C111.154 20.7511 111.02 20.632 110.912 20.4911C110.812 20.3514 110.745 20.1913 110.716 20.0227C110.679 19.7986 110.663 19.5717 110.666 19.3448C110.663 19.1616 110.671 18.9783 110.691 18.7962C110.706 18.6922 110.736 18.5907 110.78 18.4949C110.973 18.0582 111.392 17.8398 112.038 17.8398C112.683 17.8398 113.103 18.0494 113.297 18.4687C113.323 18.529 113.346 18.5908 113.365 18.6537C113.39 18.7337 113.405 18.8161 113.411 18.8993C113.419 18.9976 113.426 19.1221 113.429 19.2694C113.432 19.4168 113.429 19.6068 113.429 19.836H112.927C112.927 19.6313 112.927 19.4643 112.927 19.3448C112.927 19.2252 112.917 19.1155 112.909 19.0369C112.903 18.9746 112.892 18.9127 112.877 18.8519C112.864 18.8077 112.85 18.7602 112.834 18.711C112.706 18.4392 112.442 18.3033 112.039 18.3033C111.883 18.2968 111.727 18.3224 111.581 18.3786C111.475 18.421 111.385 18.4941 111.323 18.5882C111.26 18.6874 111.221 18.7995 111.21 18.9157C111.192 19.057 111.184 19.1992 111.185 19.3415C111.181 19.5291 111.195 19.7167 111.228 19.9015C111.252 20.0324 111.31 20.1552 111.395 20.2585C111.489 20.3631 111.603 20.4487 111.73 20.5107C111.867 20.5861 112.049 20.6745 112.277 20.7695C112.519 20.8659 112.751 20.986 112.969 21.1281C113.122 21.2281 113.252 21.358 113.352 21.5097C113.447 21.6629 113.504 21.8355 113.519 22.014C113.543 22.2557 113.553 22.4984 113.551 22.7411C113.554 22.9347 113.546 23.1282 113.526 23.3208C113.511 23.4346 113.477 23.5452 113.426 23.6483C113.217 24.1014 112.765 24.3279 112.069 24.3279Z" fill="#6A5248"/>
  <path d="M115.067 16.8855C115.014 16.8873 114.961 16.8784 114.911 16.8592C114.861 16.84 114.816 16.811 114.778 16.774C114.74 16.737 114.711 16.6927 114.691 16.644C114.672 16.5953 114.662 16.5432 114.664 16.4908C114.662 16.4395 114.671 16.3883 114.691 16.3406C114.711 16.2929 114.74 16.2498 114.778 16.2141C114.859 16.1465 114.961 16.1094 115.067 16.1094C115.173 16.1094 115.276 16.1465 115.357 16.2141C115.394 16.2498 115.424 16.2929 115.444 16.3406C115.463 16.3883 115.472 16.4395 115.47 16.4908C115.472 16.5432 115.463 16.5953 115.444 16.644C115.424 16.6927 115.394 16.737 115.357 16.774C115.319 16.811 115.274 16.84 115.224 16.8592C115.174 16.8784 115.121 16.8873 115.067 16.8855ZM114.817 17.9335H115.318V24.2431H114.817V17.9335Z" fill="#6A5248"/>
  <path d="M120.025 17.9339V24.0453C120.025 24.3576 120.017 24.6572 120 24.9444C119.989 25.2082 119.927 25.4676 119.818 25.7091C119.712 25.9305 119.541 26.1154 119.326 26.2397C119.033 26.3872 118.705 26.4556 118.376 26.4378C117.805 26.4378 117.394 26.3003 117.143 26.0252C116.893 25.75 116.767 25.3412 116.766 24.7986H117.281C117.259 25.111 117.345 25.4216 117.526 25.6796C117.69 25.8816 117.978 25.9826 118.389 25.9826C118.892 25.9826 119.223 25.8057 119.383 25.452C119.409 25.3995 119.43 25.3447 119.446 25.2882C119.466 25.2136 119.478 25.1374 119.483 25.0606C119.483 24.9656 119.498 24.8428 119.503 24.6905C119.508 24.5382 119.503 24.3434 119.503 24.1059V23.5393C119.405 23.7172 119.271 23.8739 119.109 23.9999C118.948 24.1258 118.762 24.2186 118.563 24.2726C118.364 24.3266 118.155 24.3406 117.951 24.314C117.746 24.2873 117.549 24.2204 117.371 24.1174C117.157 23.9785 116.988 23.7817 116.886 23.5508C116.844 23.4532 116.811 23.3524 116.786 23.2495C116.755 23.1135 116.734 22.9756 116.722 22.8368C116.705 22.6632 116.694 22.4405 116.685 22.1654C116.677 21.8903 116.672 21.53 116.672 21.0862C116.672 20.6424 116.672 20.2805 116.685 20.0022C116.699 19.7238 116.705 19.4962 116.722 19.3242C116.734 19.1854 116.755 19.0476 116.786 18.9115C116.809 18.812 116.843 18.7149 116.886 18.6217C117.008 18.3843 117.195 18.1847 117.426 18.0453C117.657 17.9059 117.923 17.832 118.195 17.832C118.466 17.832 118.732 17.9059 118.963 18.0453C119.194 18.1847 119.381 18.3843 119.503 18.6217V17.9323L120.025 17.9339ZM118.289 23.8488C118.459 23.8559 118.628 23.824 118.783 23.7554C118.939 23.6869 119.075 23.5837 119.182 23.4542C119.399 23.1911 119.508 22.8008 119.508 22.2833V19.8875C119.508 19.3701 119.399 18.9781 119.182 18.7117C119.076 18.5808 118.94 18.4763 118.785 18.4065C118.629 18.3368 118.46 18.3039 118.289 18.3105C118.092 18.3009 117.896 18.3514 117.729 18.4553C117.562 18.5591 117.432 18.7111 117.358 18.8903C117.33 18.9605 117.307 19.0321 117.287 19.1048C117.262 19.2208 117.245 19.3384 117.237 19.4569C117.225 19.6124 117.214 19.8188 117.205 20.0726C117.197 20.3264 117.194 20.6638 117.194 21.083C117.194 21.5022 117.194 21.8395 117.205 22.0933C117.217 22.3472 117.225 22.5519 117.237 22.7042C117.245 22.822 117.262 22.9391 117.287 23.0546C117.306 23.1302 117.329 23.2045 117.358 23.2773C117.434 23.4546 117.565 23.6046 117.731 23.7069C117.898 23.8091 118.093 23.8587 118.289 23.8488Z" fill="#6A5248"/>
  <path d="M123.31 17.844C124.216 17.844 124.67 18.386 124.67 19.4701V24.2403H124.153V19.5454C124.153 19.1175 124.078 18.8047 123.927 18.6071C123.836 18.5035 123.722 18.4226 123.592 18.3713C123.463 18.3201 123.323 18.2998 123.185 18.3123C123.027 18.3054 122.87 18.3333 122.726 18.394C122.581 18.4546 122.452 18.5465 122.348 18.6628C122.142 18.8964 122.04 19.2397 122.041 19.6928V24.2403H121.539V17.9307H122.041V18.5334C122.159 18.3107 122.343 18.1285 122.569 18.011C122.799 17.8971 123.053 17.8397 123.31 17.844Z" fill="#6A5248"/>
  <path d="M16.5845 22.9334L18.5596 25.3505C18.6401 25.4485 18.6906 25.5669 18.7053 25.6918C18.72 25.8168 18.6982 25.9433 18.6426 26.0566C18.587 26.17 18.4997 26.2657 18.3909 26.3326C18.2821 26.3994 18.1562 26.4348 18.0278 26.4346H3.4333C2.52273 26.4346 1.64946 26.0804 1.00559 25.4499C0.361721 24.8194 0 23.9643 0 23.0726V4.07677C0 3.18513 0.361721 2.33001 1.00559 1.69953C1.64946 1.06904 2.52273 0.714845 3.4333 0.714845H10.1645C10.572 0.714307 10.9679 0.848124 11.2883 1.09475L15.541 4.3699C15.6113 4.42405 15.6701 4.49126 15.7139 4.56766C15.7577 4.64406 15.7856 4.72816 15.7962 4.81515C15.8068 4.90215 15.7997 4.99034 15.7754 5.07466C15.7511 5.15899 15.7101 5.2378 15.6547 5.30659L13.9724 7.40597C13.9169 7.47489 13.8481 7.53244 13.77 7.57534C13.6918 7.61824 13.6058 7.64564 13.5168 7.65598C13.4278 7.66632 13.3376 7.6594 13.2514 7.63561C13.1651 7.61182 13.0845 7.57161 13.0141 7.51731L9.74804 5.00036C9.50934 4.81713 9.21517 4.71689 8.91187 4.71542H4.99526C4.75443 4.71542 4.52345 4.80912 4.35316 4.97587C4.18286 5.14263 4.08719 5.3688 4.08719 5.60464V21.5448C4.08719 21.6615 4.11067 21.7772 4.15631 21.8851C4.20194 21.9929 4.26883 22.091 4.35316 22.1735C4.43748 22.2561 4.53758 22.3216 4.64776 22.3663C4.75793 22.411 4.87601 22.434 4.99526 22.434H15.5209C15.7251 22.4338 15.9267 22.4786 16.1109 22.565C16.295 22.6515 16.4569 22.7774 16.5845 22.9334Z" fill="#4C3931"/>
  <path d="M29.2997 26.4184H22.7642C22.4658 26.4183 22.1713 26.3523 21.9026 26.2253C21.6339 26.0983 21.3979 25.9135 21.2123 25.6848L13.8707 16.6503C13.1602 15.7753 12.7734 14.6904 12.7734 13.5725C12.7734 12.4546 13.1602 11.3697 13.8707 10.4947L21.2123 1.45855C21.3983 1.23032 21.6343 1.046 21.903 0.919285C22.1716 0.792569 22.466 0.726705 22.7642 0.726563H29.9853C30.7138 0.726562 31.4124 1.00981 31.9276 1.51402C32.4429 2.01824 32.7325 2.70217 32.733 3.41546V23.0565C32.733 23.9481 32.3713 24.8033 31.7274 25.4338C31.0835 26.0642 30.2102 26.4184 29.2997 26.4184ZM24.4198 22.449H27.7645C28.0053 22.449 28.2363 22.3553 28.4066 22.1885C28.5769 22.0218 28.6725 21.7956 28.6725 21.5598V5.58525C28.6725 5.34942 28.5769 5.12324 28.4066 4.95649C28.2363 4.78973 28.0053 4.69604 27.7645 4.69604H24.4198C24.2148 4.6961 24.0125 4.74133 23.8278 4.82835C23.6431 4.91538 23.4808 5.04197 23.3528 5.19876L17.6669 12.2027C17.351 12.5922 17.179 13.075 17.179 13.5725C17.179 14.07 17.351 14.5528 17.6669 14.9423L23.3528 21.9462C23.4808 22.103 23.6431 22.2296 23.8278 22.3167C24.0125 22.4037 24.2148 22.4489 24.4198 22.449Z" fill="#4C3931"/>
</svg>