<svg xmlns="http://www.w3.org/2000/svg" width="36" height="26" viewBox="0 0 36 26" fill="none">
  <path d="M35.2586 7.44303C35.0409 5.34147 34.5726 3.01829 32.8487 1.7974C31.5135 0.850628 29.7585 0.815626 28.1201 0.81757C24.6567 0.81757 21.1915 0.82341 17.7281 0.825354C14.3969 0.829243 11.0657 0.831184 7.73453 0.835072C6.34297 0.835072 4.99028 0.728145 3.69784 1.33081C2.58809 1.84794 1.71934 2.83166 1.19653 3.92618C0.4716 5.4484 0.320013 7.17281 0.232555 8.85639C0.0712429 11.9222 0.0887346 14.9958 0.281143 18.0597C0.42302 20.2954 0.782565 22.7664 2.51035 24.1914C4.04184 25.4531 6.20303 25.5153 8.18931 25.5172C14.4941 25.5231 20.8008 25.5289 27.1075 25.5328C27.916 25.5347 28.7595 25.5192 29.5836 25.4298C31.2045 25.2548 32.7495 24.7901 33.7913 23.5887C34.8427 22.3775 35.1129 20.692 35.2722 19.0959C35.6609 15.2233 35.657 11.3137 35.2586 7.44303ZM14.0821 18.6041V7.74631L23.4809 13.1742L14.0821 18.6041Z" fill="#CAB8AA"/>
</svg>